<?xml version="1.0" encoding="UTF-8" standalone="no"?>
<svg width="47px" height="43px" viewBox="0 0 47 43" version="1.1" xmlns="http://www.w3.org/2000/svg" xmlns:xlink="http://www.w3.org/1999/xlink">
    <!-- Generator: Sketch 39 (31667) - http://www.bohemiancoding.com/sketch -->
    <title>Group</title>
    <desc>Created with Sketch.</desc>
    <defs></defs>
    <g id="Product-Page" stroke="none" stroke-width="1" fill="none" fill-rule="evenodd">
        <g id="TF_Product-Page-1440" transform="translate(-496.000000, -3831.000000)" fill="#FCB434">
            <g id="module-2_feature-set" transform="translate(-1.000000, 3735.000000)">
                <g id="features" transform="translate(81.000000, 89.000000)">
                    <g id="f-2" transform="translate(413.000000, 0.000000)">
                        <g id="Group" transform="translate(28.500000, 28.500000) rotate(-45.000000) translate(-28.500000, -28.500000) translate(9.000000, 9.000000)">
                            <path d="M6.28571429,2 L11.5714286,2 L10.5714286,1 L10.5714286,11.5714286 L11.5714286,10.5714286 L1,10.5714286 L2,11.5714286 L2,6.28571429 C2,3.92100335 3.92249452,2 6.28571429,2 Z M5.68434189e-13,11.5714286 L5.68545211e-13,12.5714286 L1,12.5714286 L11.5714286,12.5714286 L12.5714286,12.5714286 L12.5714286,11.5714286 L12.5714286,1 L12.5714286,5.68434189e-13 L11.5714286,5.68434189e-13 L6.28571429,5.68434189e-13 C2.81827228,5.68434189e-13 5.68434189e-13,2.81608629 5.68434189e-13,6.28571429 L5.68434189e-13,11.5714286 Z" id="Rectangle-72"></path>
                            <path d="M38,11.6904762 L37,10.6904762 L37,24.3452381 C37,31.3348616 31.3353368,37 24.3452381,37 L10.6904762,37 L11.6904762,38 L11.6904762,10.6904762 L10.6904762,11.6904762 L38,11.6904762 Z M9.69047619,9.69047619 L9.69047619,10.6904762 L9.69047619,38 L9.69047619,39 L10.6904762,39 L24.3452381,39 C32.4399438,39 39,32.4393935 39,24.3452381 L39,10.6904762 L39,9.69047619 L38,9.69047619 L10.6904762,9.69047619 L9.69047619,9.69047619 Z" id="Rectangle-72"></path>
                        </g>
                    </g>
                </g>
            </g>
        </g>
    </g>
</svg>