<?xml version="1.0" encoding="UTF-8" standalone="no"?>
<svg width="36px" height="43px" viewBox="0 0 36 43" version="1.1" xmlns="http://www.w3.org/2000/svg" xmlns:xlink="http://www.w3.org/1999/xlink">
    <!-- Generator: Sketch 39 (31667) - http://www.bohemiancoding.com/sketch -->
    <title>Rectangle 72</title>
    <desc>Created with Sketch.</desc>
    <defs></defs>
    <g id="Product-Page" stroke="none" stroke-width="1" fill="none" fill-rule="evenodd">
        <g id="TF_Product-Page-1440" transform="translate(-507.000000, -3831.000000)" fill="#FCB434">
            <g id="module-2_feature-set" transform="translate(-1.000000, 3735.000000)">
                <g id="features" transform="translate(81.000000, 91.000000)">
                    <g id="f-2" transform="translate(415.000000, 0.000000)">
                        <g id="Group" transform="translate(26.500000, 26.500000) rotate(-45.000000) translate(-26.500000, -26.500000) translate(8.000000, 8.000000)">
                            <path d="M37,10.6904762 L36,9.69047619 L36,23.3452381 C36,30.3348616 30.3353368,36 23.3452381,36 L9.69047619,36 L10.6904762,37 L10.6904762,9.69047619 L9.69047619,10.6904762 L37,10.6904762 Z M8.69047619,8.69047619 L8.69047619,9.69047619 L8.69047619,37 L8.69047619,38 L9.69047619,38 L23.3452381,38 C31.4399438,38 38,31.4393935 38,23.3452381 L38,9.69047619 L38,8.69047619 L37,8.69047619 L9.69047619,8.69047619 L8.69047619,8.69047619 Z" id="Rectangle-72"></path>
                        </g>
                    </g>
                </g>
            </g>
        </g>
    </g>
</svg>