<?xml version="1.0" encoding="UTF-8" standalone="no"?>
<svg width="96px" height="35px" viewBox="0 0 96 35" version="1.1" xmlns="http://www.w3.org/2000/svg" xmlns:xlink="http://www.w3.org/1999/xlink">
    <!-- Generator: Sketch 39 (31667) - http://www.bohemiancoding.com/sketch -->
    <title>Page 1</title>
    <desc>Created with Sketch.</desc>
    <defs></defs>
    <g id="Navigation" stroke="none" stroke-width="1" fill="none" fill-rule="evenodd">
        <g id="Nav-in-situation" transform="translate(-31.000000, -119.000000)" fill="#FFFFFF">
            <g id="products" transform="translate(31.000000, 118.000000)">
                <g id="Page-1" transform="translate(0.000000, 1.000000)">
                    <path d="M17.3001038,0.666188679 C26.6074623,0.909867925 33.9548208,8.65213208 33.7118019,17.9601509 C33.4674623,27.2675094 25.7245377,34.6155283 16.4171792,34.3705283 C7.10982075,34.1275094 -0.237537736,26.3852453 0.00614150943,17.0778868 C0.250481132,7.7705283 7.99274528,0.423169811 17.3001038,0.666188679 M17.2545377,2.40760377 C8.9080283,2.18835849 1.96614151,8.7769434 1.74689623,17.1221321 C1.52831132,25.4686415 8.11689623,32.4118491 16.4634057,32.630434 C24.8092547,32.8496792 31.7524623,26.2610943 31.9703868,17.9145849 C32.1896321,9.56807547 25.6003868,2.6255283 17.2545377,2.40760377" id="Fill-1"></path>
                    <path d="M18.4138302,12.0769151 C17.7468491,12.710217 18.0083585,14.1425755 19.0451509,15.2355 C20.0819434,16.3271038 21.4991132,16.6638962 22.1660943,16.0305943 C22.8330755,15.3972925 22.5973208,13.9385189 21.5618491,12.8469151 C20.525717,11.7553113 19.0808113,11.4436132 18.4138302,12.0769151 M26.820434,8.02351887 C29.0175094,10.3269151 29.7828868,12.8403113 29.7828868,12.8403113 C29.7828868,12.8403113 30.2187358,14.0461604 28.8444906,14.0461604 C27.7152453,14.0461604 25.4759057,14.0666321 25.4759057,14.0666321 C25.4759057,14.0666321 24.4100566,13.9847453 24.3499623,14.8894623 C24.2746792,16.0272925 24.3050566,16.9795566 24.3050566,16.9795566 C24.3050566,16.9795566 24.3380755,18.0031415 24.9997736,18.7817264 L28.4726981,22.4415377 C28.4726981,22.4415377 29.3780755,23.1732358 28.6417547,24.4305943 C27.7343962,25.9818208 25.3603396,29.2797453 20.7456226,30.6467264 C19.7193962,30.9511604 19.6282642,30.1204057 19.6639245,29.5597453 C19.6863774,29.1991792 20.0793019,21.1306887 20.0793019,21.1306887 C20.0793019,21.1306887 20.3381698,19.7987075 19.3198679,18.7255943 C18.2276038,17.5738962 17.5493962,16.8184245 17.5493962,16.8184245 C17.5493962,16.8184245 16.7767547,16.0451226 15.6838302,14.8934245 C14.6655283,13.8203113 13.3216604,14.0091792 13.3216604,14.0091792 C13.3216604,14.0091792 5.24326415,13.9801226 4.88269811,13.9827642 C4.32071698,13.9893679 3.49524528,13.8559717 3.85250943,12.8469151 C5.46118868,8.30946226 8.87864151,6.11106604 10.4747736,5.28625472 C11.7691132,4.61729245 12.4519434,5.55965094 12.4519434,5.55965094 L15.9255283,9.21880189 C16.6684528,9.9214434 17.6880755,10.0066321 17.6880755,10.0066321 C17.6880755,10.0066321 18.6376981,10.0865377 19.7781698,10.0713491 C20.6842075,10.0588019 20.6591132,8.98965094 20.6591132,8.98965094 C20.6591132,8.98965094 20.7951509,6.75493396 20.8545849,5.62766981 C20.926566,4.25408491 22.1079811,4.75266981 22.1079811,4.75266981 C22.1079811,4.75266981 24.6352453,5.70889623 26.820434,8.02351887" id="Fill-4"></path>
                    <path d="M66.5755472,9.05000943 C67.1613019,9.05000943 67.6367736,9.52482075 67.6367736,10.1112358 L67.6367736,19.0877453 C67.6367736,23.7658585 65.0421509,26.3598208 60.8480943,26.3598208 C56.6296038,26.3598208 54.0600755,23.7427453 54.0600755,19.0877453 L54.0600755,10.1112358 C54.0600755,9.52482075 54.5342264,9.05000943 55.1206415,9.05000943 L56.3198868,9.05000943 C56.9069623,9.05000943 57.3811132,9.52482075 57.3811132,10.1112358 L57.3811132,19.0877453 C57.3811132,21.9234057 58.5684717,23.2573679 60.8480943,23.2573679 C63.1514906,23.2573679 64.3395094,21.9234057 64.3395094,19.0877453 L64.3395094,10.1112358 C64.3395094,9.52482075 64.8143208,9.05000943 65.3994151,9.05000943 L66.5755472,9.05000943 Z" id="Fill-6"></path>
                    <path d="M94.8764811,22.8488585 C95.4595943,22.8488585 95.9330849,23.3223491 95.9330849,23.9054623 L95.9330849,24.9085755 C95.9330849,25.4930094 95.4595943,25.9665 94.8764811,25.9665 L85.849783,25.9665 C85.2653491,25.9665 84.7918585,25.4930094 84.7918585,24.9085755 L84.7918585,10.106217 C84.7918585,9.5224434 85.2653491,9.04895283 85.849783,9.04895283 L94.7305377,9.04895283 C95.3156321,9.04895283 95.7884623,9.5224434 95.7884623,10.106217 L95.7884623,11.1099906 C95.7884623,11.6931038 95.3156321,12.1665943 94.7305377,12.1665943 L88.079217,12.1665943 L88.079217,15.7914057 L93.0393113,15.7914057 C93.6244057,15.7914057 94.0965755,16.2648962 94.0965755,16.8493302 L94.0965755,17.6833868 C94.0965755,18.2671604 93.6244057,18.7406509 93.0393113,18.7406509 L88.079217,18.7406509 L88.079217,22.8488585 L94.8764811,22.8488585 Z" id="Fill-8"></path>
                    <path d="M80.7786792,25.9623396 C80.4313208,25.9623396 80.1057547,25.7913019 79.9083019,25.5053585 L75.0307547,18.4267736 L73.4616981,20.093566 L73.4616981,24.9057358 C73.4616981,25.4888491 72.9882075,25.9623396 72.4050943,25.9623396 L71.2329245,25.9623396 C70.6498113,25.9623396 70.1769811,25.4888491 70.1769811,24.9057358 L70.1769811,10.113283 C70.1769811,9.52950943 70.6498113,9.05733962 71.2329245,9.05733962 L72.4050943,9.05733962 C72.9882075,9.05733962 73.4616981,9.52950943 73.4616981,10.113283 L73.4616981,12.3889434 L73.4616981,16.0355472 L79.5477358,9.39941509 C79.7471698,9.18149057 80.0304717,9.05733962 80.3263208,9.05733962 L81.4232075,9.05733962 C81.8458491,9.05733962 82.2268868,9.30762264 82.3933019,9.69460377 C82.5603774,10.0815849 82.4824528,10.5313019 82.1932075,10.837717 L77.204717,16.1326226 L82.9242453,24.2995094 C83.1500943,24.622434 83.1778302,25.0437547 82.995566,25.3930943 C82.8133019,25.7437547 82.4527358,25.9623396 82.0584906,25.9623396 L80.7786792,25.9623396 Z" id="Fill-11"></path>
                    <path d="M49.3603019,9.05238679 C48.7738868,9.05238679 48.2990755,9.53182075 48.2990755,10.1175755 L48.2970943,20.0582358 L41.3380377,9.5245566 C41.1412453,9.22738679 40.8084151,9.05238679 40.4518113,9.05238679 L39.0049245,9.05238679 C38.4198302,9.05238679 37.9443585,9.52389623 37.9443585,10.1089906 L37.9443585,24.8988019 C37.9443585,25.4838962 38.4198302,25.9620094 39.0049245,25.9620094 L40.1374717,25.9620094 C40.4194528,25.9620094 40.6895472,25.8477642 40.8876604,25.6489906 C41.0870943,25.4495566 41.1980377,25.1794623 41.1980377,24.8988019 L41.1973774,14.7296509 L48.3010566,25.4911604 C48.4978491,25.7909717 48.8326604,25.9626698 49.1912453,25.9620094 L50.5047358,25.9606887 C51.0904906,25.9593679 51.5659623,25.485217 51.5659623,24.8988019 L51.5626604,10.1175755 C51.5626604,9.53182075 51.0871887,9.05238679 50.5007736,9.05238679 L49.3603019,9.05238679 Z" id="Fill-13"></path>
                </g>
            </g>
        </g>
    </g>
</svg>