<?xml version="1.0" encoding="UTF-8" standalone="no"?>
<svg width="122px" height="119px" viewBox="0 0 122 119" version="1.1" xmlns="http://www.w3.org/2000/svg" xmlns:xlink="http://www.w3.org/1999/xlink">
    <!-- Generator: Sketch 39 (31667) - http://www.bohemiancoding.com/sketch -->
    <title>hiero</title>
    <desc>Created with Sketch.</desc>
    <defs></defs>
    <g id="Navigation" stroke="none" stroke-width="1" fill="none" fill-rule="evenodd">
        <g id="Nav-in-situation" transform="translate(-1049.000000, -111.000000)" fill="#FFFFFF">
            <g id="products" transform="translate(30.000000, 111.000000)">
                <g id="hiero" transform="translate(1019.000000, 0.000000)">
                    <g id="Page-1">
                        <g id="Group-3" transform="translate(0.000000, 0.038170)">
                            <path d="M31.9703868,17.8764811 C31.7511415,26.2229906 24.8092547,32.8102547 16.4634057,32.5923302 C8.11689623,32.3737453 1.52831132,25.4305377 1.74689623,17.0853491 C1.96482075,8.73883962 8.9080283,2.15025472 17.2545377,2.3695 C25.6003868,2.58808491 32.1883113,9.5299717 31.9703868,17.8764811 M17.3001038,0.628084906 C7.99274528,0.385066038 0.250481132,7.73242453 0.00614150943,17.039783 C-0.237537736,26.3471415 7.10982075,34.0894057 16.4171792,34.3337453 C25.7245377,34.5774245 33.4674623,27.2294057 33.7118019,17.9220472 C33.9548208,8.61468868 26.6074623,0.871764151 17.3001038,0.628084906" id="Fill-1"></path>
                        </g>
                        <path d="M28.1674057,17.1966887 C28.0960849,16.8301792 27.9838208,16.5184811 27.8748585,16.1645189 L25.3991038,8.08083962 C25.2848585,7.74866981 25.1329717,7.47659434 24.7611792,7.39866981 C24.3999528,7.32140566 23.9581604,7.3405566 23.4886321,7.33857547 C22.9920283,7.33527358 22.5944811,7.33131132 22.422783,7.60404717 C22.3402358,7.7374434 22.342217,7.96065094 22.387783,8.16140566 C22.4287264,8.33310377 22.4815566,8.49621698 22.5376887,8.6765 C22.9636321,10.0573491 23.3565566,11.3596132 23.7699528,12.7246132 C23.8260849,12.9081981 23.8835377,13.0884811 23.8452358,13.2865943 C23.8062736,13.4794245 23.7039151,13.5798019 23.5183491,13.6187642 C23.1881604,13.686783 22.6809906,13.6696132 22.2504245,13.6696132 L13.0084434,13.6696132 C12.2833491,13.6715943 12.0258019,13.6524434 11.7418396,13.721783 C11.3911792,13.8082925 11.2399528,14.071783 11.1224057,14.4211226 C11.0075,14.7645189 10.907783,15.1032925 10.8067453,15.4301792 C10.7195755,15.7134811 10.5168396,16.2008396 10.7275,16.4848019 C10.9190094,16.7456509 11.3865566,16.7139528 11.8158019,16.7152736 L23.6953302,16.7152736 C24.1391038,16.7152736 24.6099528,16.6934811 24.8595755,16.8757453 C25.1125,17.0599906 25.2491981,17.5235755 25.1455189,17.8801792 L22.6691038,25.9684811 C22.5693868,26.2973491 22.4511792,26.6433868 22.3706132,26.9887642 C22.2609906,27.4642358 22.5211792,27.6821604 22.9325943,27.7118774 C23.3096698,27.7382925 23.8676887,27.7382925 24.2460849,27.7231038 C24.4567453,27.7138585 24.6792925,27.7191415 24.8529717,27.6597075 C25.3304245,27.4965943 25.4261792,26.916783 25.5820283,26.4102736 C26.4121226,23.702066 27.2296698,21.0242358 28.0584434,18.3219717 C28.1641038,17.9746132 28.2479717,17.6133868 28.1674057,17.1966887" id="Fill-4"></path>
                        <path d="M22.911,19.6403491 C22.9988302,19.3570472 23.2009057,18.8703491 22.9902453,18.5857264 C22.7987358,18.3248774 22.3318491,18.3565755 21.9019434,18.3565755 L10.0224151,18.3565755 C9.57864151,18.3565755 9.10845283,18.3777075 8.85883019,18.1954434 C8.60524528,18.0105377 8.46854717,17.5476132 8.57288679,17.1903491 L11.0486415,9.10204717 C11.1490189,8.77383962 11.266566,8.42714151 11.3471321,8.08176415 C11.4574151,7.60629245 11.1952453,7.3890283 10.7851509,7.3599717 C10.4093962,7.33223585 9.85071698,7.33223585 9.47166038,7.34874528 C9.261,7.35666981 9.03911321,7.35138679 8.86477358,7.41148113 C8.38732075,7.57459434 8.29156604,8.15506604 8.13703774,8.66091509 C7.30628302,11.369783 6.48741509,14.0462925 5.65930189,16.7485566 C5.55364151,17.0965755 5.46911321,17.4571415 5.55033962,17.8745 C5.62166038,18.2416698 5.73392453,18.5527075 5.84288679,18.9060094 L8.31930189,26.9896887 C8.43288679,27.3225189 8.58477358,27.5945943 8.95524528,27.6731792 C9.31779245,27.7491226 9.75892453,27.7312925 10.2291132,27.7332736 C10.7263774,27.7352547 11.1245849,27.7398774 11.2956226,27.4664811 C11.3775094,27.3337453 11.3755283,27.1111981 11.3286415,26.9104434 C11.2890189,26.7380849 11.2361887,26.5756321 11.1800566,26.3940283 C10.7547736,25.0145 10.3625094,23.7128962 9.94845283,22.3465755 C9.89232075,22.1623302 9.83420755,21.9833679 9.87316981,21.7845943 C9.9114717,21.5924245 10.0144906,21.4907264 10.1993962,21.4530849 C10.5295849,21.3837453 11.0367547,21.4009151 11.4673208,21.4009151 L20.7099623,21.4009151 C21.4343962,21.3995943 21.6919434,21.4180849 21.976566,21.3487453 C22.326566,21.2635566 22.4771321,20.9994057 22.5953396,20.6494057 C22.7102453,20.3060094 22.8099623,19.9685566 22.911,19.6403491" id="Fill-6"></path>
                    </g>
                    <text id="Collaborative-multi-" opacity="0.5" font-family="AvenirLTStd-Light, Avenir LT Std" font-size="14" font-weight="300" line-spacing="20">
                        <tspan x="0" y="90">Collaborative multi-</tspan>
                        <tspan x="0" y="110">shot management</tspan>
                    </text>
                    <text id="HIERO" font-family="AvenirLTStd-Medium, Avenir LT Std" font-size="24" font-weight="500">
                        <tspan x="0" y="68">HIERO</tspan>
                    </text>
                </g>
            </g>
        </g>
    </g>
</svg>