<?xml version="1.0" encoding="UTF-8" standalone="no"?>
<svg width="131px" height="35px" viewBox="0 0 131 35" version="1.1" xmlns="http://www.w3.org/2000/svg" xmlns:xlink="http://www.w3.org/1999/xlink">
    <!-- Generator: Sketch 39 (31667) - http://www.bohemiancoding.com/sketch -->
    <title>Page 1</title>
    <desc>Created with Sketch.</desc>
    <defs></defs>
    <g id="Navigation" stroke="none" stroke-width="1" fill="none" fill-rule="evenodd" opacity="1">
        <g id="Nav-in-situation" transform="translate(-358.000000, -119.000000)" fill="#FFFFFF">
            <g id="products" transform="translate(31.000000, 118.000000)">
                <g id="Page-1" transform="translate(327.472787, 1.000000)">
                    <path d="M17.1826442,0 C7.69293269,0 0.000336538462,7.69326923 0.000336538462,17.1823077 C0.000336538462,26.6720192 7.69293269,34.3652885 17.1826442,34.3652885 C26.6723558,34.3652885 34.3649519,26.6720192 34.3649519,17.1823077 C34.3649519,7.69326923 26.6723558,0 17.1826442,0 M17.2062019,32.5924038 C8.68639423,32.5924038 1.77860577,25.6859615 1.77860577,17.1661538 C1.77860577,8.64567308 8.68639423,1.73855769 17.2062019,1.73855769 C25.7260096,1.73855769 32.633125,8.64567308 32.633125,17.1661538 C32.633125,25.6859615 25.7260096,32.5924038 17.2062019,32.5924038" id="Fill-1"></path>
                    <path d="M30.7839135,16.9623462 C30.6344904,17.8925385 30.3167981,18.8119615 29.817375,19.6748462 C27.6197788,23.4831154 22.7514135,24.7882115 18.9438173,22.5892692 C18.4827596,22.3234038 18.0593942,22.0185 17.6743942,21.6812885 C19.518625,21.1859038 21.1306442,20.1258077 22.3112212,18.6941731 C22.362375,18.7756154 22.4108365,18.8563846 22.458625,18.9391731 C22.9580481,19.8040769 23.2764135,20.7221538 23.4258365,21.6523462 C23.5328558,20.3869615 23.3740096,19.0919615 22.9297788,17.8508077 C23.8471827,16.4339808 24.3809327,14.7445577 24.3809327,12.9312885 C24.3809327,7.92763462 20.3249712,3.87167308 15.3219904,3.87167308 C13.4010288,3.87167308 11.6200673,4.47071154 10.1534327,5.48975 C11.0338173,5.15455769 11.9882404,4.97080769 12.9870865,4.97080769 C17.3829519,4.97080769 20.9468942,8.53475 20.9468942,12.9312885 C20.9468942,13.4616731 20.8950673,13.9799423 20.796125,14.4807115 C19.4459327,13.1332115 17.7221827,12.2683077 15.8934327,11.9620577 C15.9385288,11.8792692 15.9829519,11.7964808 16.0293942,11.7150385 C16.5288173,10.8508077 17.1662212,10.1158077 17.8965096,9.52148077 C16.7489135,10.0599423 15.7069904,10.84475 14.854875,11.8483077 C13.1694904,11.7621538 11.4396827,12.1437885 9.86804808,13.0510962 C5.53545192,15.5529231 4.05064423,21.0936923 6.55247115,25.4262885 C7.51227885,27.0901346 8.92102885,28.3346538 10.5377596,29.0932115 C9.80679808,28.4982115 9.17006731,27.7638846 8.67199038,26.8989808 C6.472375,23.0927308 7.77747115,18.2230192 11.5850673,16.0254231 C12.0434327,15.7609038 12.518625,15.5468654 13.0012212,15.3819615 C12.5085288,17.2248462 12.6216058,19.1491731 13.2691058,20.8863846 C13.174875,20.8890769 13.0813173,20.8910962 12.9870865,20.8910962 C11.9882404,20.8910962 11.0338173,20.7080192 10.1534327,20.3728269 C11.1946827,21.0957115 12.3941058,21.6065769 13.6897788,21.8428269 C14.4577596,23.3478269 15.6538173,24.6556154 17.2274712,25.5635962 C21.5600673,28.0654231 27.1008365,26.5806154 29.6019904,22.2480192 C30.5631442,20.5835 30.9346827,18.7419615 30.7839135,16.9623462 M16.3295865,20.1567692 C15.3044904,18.6396538 14.8299712,16.8048462 14.994875,14.9781154 C16.8216058,14.8475385 18.6483365,15.3536923 20.148625,16.4090769 C19.3476635,18.0560962 17.9941058,19.3854231 16.3295865,20.1567692" id="Fill-3"></path>
                    <path d="M109.908346,8.55130769 C109.310654,8.55130769 108.826712,9.03996154 108.826712,9.63698077 L108.824692,19.7708269 L101.730462,9.03255769 C101.530558,8.72967308 101.190654,8.55130769 100.827865,8.55130769 L99.3531538,8.55130769 C98.7554615,8.55130769 98.2708462,9.03188462 98.2708462,9.62957692 L98.2708462,24.7044808 C98.2708462,25.3021731 98.7554615,25.7888077 99.3531538,25.7888077 L100.506808,25.7888077 C100.793538,25.7888077 101.068154,25.6716923 101.272096,25.4690962 C101.475365,25.2671731 101.588442,24.9912115 101.588442,24.7044808 L101.587096,14.3390962 L108.828731,25.3095769 C109.029308,25.6138077 109.370558,25.7908269 109.736038,25.7888077 L111.078154,25.7888077 C111.6745,25.7867885 112.156423,25.3041923 112.156423,24.7085192 L112.153058,9.63698077 C112.153058,9.03996154 111.668442,8.55130769 111.071423,8.55130769 L109.908346,8.55130769 Z" id="Fill-5"></path>
                    <path d="M49.4806442,25.7869904 C49.1259327,25.7869904 48.7947788,25.6126635 48.5935288,25.3212212 L43.6215096,18.1051635 L42.0209327,19.8040096 L42.0209327,24.7100673 C42.0209327,25.3043942 41.5383365,25.7869904 40.9440096,25.7869904 L39.7492981,25.7869904 C39.1549712,25.7869904 38.672375,25.3043942 38.672375,24.7100673 L38.672375,9.62843269 C38.672375,9.03410577 39.1549712,8.55150962 39.7492981,8.55150962 L40.9440096,8.55150962 C41.5383365,8.55150962 42.0209327,9.03410577 42.0209327,9.62843269 L42.0209327,11.9492019 L42.0209327,15.6672788 L48.2246827,8.90150962 C48.4292981,8.67804808 48.7167019,8.55150962 49.0189135,8.55150962 L50.1375673,8.55150962 C50.5683365,8.55150962 50.9567019,8.80795192 51.1263173,9.202375 C51.2979519,9.59679808 51.2165096,10.0551635 50.922375,10.3674712 L45.8372788,15.7662212 L51.6674712,24.0921827 C51.8976635,24.4213173 51.9259327,24.8507404 51.7401635,25.2067981 C51.5550673,25.5642019 51.1868942,25.7869904 50.7850673,25.7869904 L49.4806442,25.7869904 Z" id="Fill-7"></path>
                    <path d="M64.4044423,19.4614135 C64.4044423,19.4614135 61.8931923,12.7158365 61.8689615,12.7158365 L61.8440577,12.7158365 C61.8191538,12.7158365 59.3079038,19.4614135 59.3079038,19.4614135 L64.4044423,19.4614135 Z M65.5863654,22.4889135 L58.1266538,22.4889135 L57.1150192,25.0977596 C56.9528077,25.5137212 56.5536731,25.7876635 56.1074231,25.7876635 L54.7673269,25.7876635 C54.4072308,25.7876635 54.0700192,25.6079519 53.8701154,25.3084327 C53.6695385,25.0082404 53.6311731,24.628625 53.7684808,24.2954519 L59.9688654,9.22458654 C60.1351154,8.82006731 60.5302115,8.55554808 60.9683846,8.55554808 L62.7453077,8.55554808 C63.1828077,8.55554808 63.5772308,8.82006731 63.7441538,9.22458654 L69.9452115,24.2954519 C70.0818462,24.628625 70.0448269,25.0082404 69.8435769,25.3084327 C69.643,25.6079519 69.3057885,25.7876635 68.9456923,25.7876635 L67.6062692,25.7876635 C67.1600192,25.7876635 66.7588654,25.5137212 66.598,25.0977596 L65.5863654,22.4889135 Z" id="Fill-9"></path>
                    <path d="M90.5264231,19.4608077 C90.5264231,19.4608077 88.0158462,12.7152308 87.9909423,12.7152308 L87.9660385,12.7152308 C87.9424808,12.7152308 85.4312308,19.4608077 85.4312308,19.4608077 L90.5264231,19.4608077 Z M91.7083462,22.4883077 L84.2499808,22.4883077 L83.237,25.0971538 C83.0761346,25.5124423 82.6756538,25.7870577 82.2294038,25.7870577 L80.8906538,25.7870577 C80.5305577,25.7870577 80.1933462,25.6066731 79.9927692,25.3078269 C79.7915192,25.0076346 79.7545,24.6280192 79.8911346,24.2935 L86.0908462,9.22532692 C86.2577692,8.82013462 86.6521923,8.55561538 87.0903654,8.55561538 L88.8672885,8.55561538 C89.3047885,8.55561538 89.7005577,8.82013462 89.8661346,9.22532692 L96.0671923,24.2935 C96.2038269,24.6280192 96.1654615,25.0076346 95.9655577,25.3078269 C95.7643077,25.6066731 95.4277692,25.7870577 95.067,25.7870577 L93.72825,25.7870577 C93.282,25.7870577 92.8808462,25.5124423 92.7199808,25.0971538 L91.7083462,22.4883077 Z" id="Fill-11"></path>
                    <path d="M124.650346,19.4570385 C124.650346,19.4570385 122.139096,12.7101154 122.114192,12.7101154 L122.089962,12.7101154 C122.065058,12.7101154 119.553808,19.4570385 119.553808,19.4570385 L124.650346,19.4570385 Z M125.832269,22.4852115 L118.371885,22.4852115 L117.358904,25.0940577 C117.198038,25.5106923 116.797558,25.7846346 116.351308,25.7846346 L115.012558,25.7846346 C114.651115,25.7846346 114.313904,25.6049231 114.114,25.3047308 C113.912077,25.0058846 113.875058,24.6249231 114.011692,24.2924231 L120.214096,9.21953846 C120.381019,8.81367308 120.775442,8.54915385 121.212942,8.54915385 L122.989865,8.54915385 C123.428712,8.54915385 123.823135,8.81367308 123.990058,9.21953846 L130.191788,24.2924231 C130.329096,24.6249231 130.290731,25.0058846 130.090154,25.3047308 C129.89025,25.6049231 129.553038,25.7846346 129.191596,25.7846346 L127.852846,25.7846346 C127.406596,25.7846346 127.006115,25.5106923 126.843904,25.0940577 L125.832269,22.4852115 Z" id="Fill-13"></path>
                    <path d="M80.4290577,8.55191346 C81.0260769,8.55191346 81.5093462,9.03585577 81.5093462,9.63220192 L81.5093462,10.6485481 C81.5093462,11.2448942 81.0260769,11.7288365 80.4290577,11.7288365 L76.5353077,11.7288365 L76.5353077,24.709125 C76.5353077,25.3047981 76.0513654,25.7887404 75.4550192,25.7887404 L74.2663654,25.7887404 C73.6700192,25.7887404 73.1860769,25.3047981 73.1860769,24.709125 L73.1860769,11.7288365 L69.3663654,11.7288365 C68.7693462,11.7288365 68.2860769,11.2448942 68.2860769,10.6485481 L68.2860769,9.63220192 C68.2860769,9.03585577 68.7693462,8.55191346 69.3663654,8.55191346 L80.4290577,8.55191346 Z" id="Fill-15"></path>
                </g>
            </g>
        </g>
    </g>
</svg>