<?xml version="1.0" encoding="UTF-8" standalone="no"?>
<svg width="122px" height="95px" viewBox="0 0 122 95" version="1.1" xmlns="http://www.w3.org/2000/svg" xmlns:xlink="http://www.w3.org/1999/xlink">
    <!-- Generator: Sketch 39 (31667) - http://www.bohemiancoding.com/sketch -->
    <title>modo</title>
    <desc>Created with Sketch.</desc>
    <defs></defs>
    <g id="Navigation" stroke="none" stroke-width="1" fill="none" fill-rule="evenodd">
        <g id="Nav-in-situation" transform="translate(-233.000000, -112.000000)" fill="#FFFFFF">
            <g id="products" transform="translate(30.000000, 111.000000)">
                <g id="modo" transform="translate(203.000000, 1.000000)">
                    <g id="Page-1" transform="translate(1.000000, 0.000000)">
                        <path d="M17.1826442,0 C7.69293269,0 0.000336538461,7.69326923 0.000336538461,17.1823077 C0.000336538461,26.6720192 7.69293269,34.3652885 17.1826442,34.3652885 C26.6723558,34.3652885 34.3649519,26.6720192 34.3649519,17.1823077 C34.3649519,7.69326923 26.6723558,0 17.1826442,0 M17.2062019,32.5924038 C8.68639423,32.5924038 1.77860577,25.6852885 1.77860577,17.1661538 C1.77860577,8.64567308 8.68639423,1.73855769 17.2062019,1.73855769 C25.7266827,1.73855769 32.6344712,8.64567308 32.6344712,17.1661538 C32.6344712,25.6852885 25.7266827,32.5924038 17.2062019,32.5924038" id="Fill-1"></path>
                        <path d="M22.6869327,14.1041923 C22.4553942,13.3362115 22.3039519,12.7216923 22.2063558,12.2323654 C21.8704904,11.5754423 20.0343365,11.4993846 18.9156827,11.9328462 C17.9753942,12.2976538 17.0593365,13.0528462 17.1098173,13.7959231 C17.1677019,14.2051538 17.2403942,14.6332308 17.3299135,15.0882308 C17.885875,17.6593846 19.4305865,22.5869808 19.2724135,23.4128462 C19.3854904,22.7666923 18.1786635,19.6187115 17.378375,17.0462115 C13.9577981,14.0045769 11.4041442,13.1268846 9.56597115,13.6276538 C7.64029808,14.154 6.58760577,16.0231346 6.265875,17.864 C5.62914423,21.5107308 7.17116346,25.4886154 7.93039423,25.8965 C8.11750962,25.9974615 8.44529808,26.4894808 9.79952885,26.1017885 C10.6173173,25.8689038 11.5784712,25.3122692 11.787125,24.5826538 C12.0442404,23.6820769 11.1443365,20.1275577 11.1288558,18.5364038 L11.1288558,18.5269808 C11.1261635,18.389 11.1322212,18.2644808 11.1443365,18.1588077 C11.2298173,17.3565 11.6020288,17.1222692 12.1391442,17.0172692 C11.7103942,17.1451538 11.5650096,17.5651538 11.507125,18.1170769 C12.3403942,18.43275 13.1723173,19.0937115 15.0300096,20.6680385 C17.5076058,22.7666923 19.0900096,25.4004423 20.755875,25.8096731 C22.7656827,26.3037115 24.0680865,25.22275 24.378375,23.12275 C24.6004904,21.6083269 23.7705865,18.1588077 23.1177019,15.6731346 C22.9595288,15.1286154 22.8134712,14.6022692 22.6869327,14.1041923" id="Fill-3"></path>
                        <path d="M22.2626923,8.22708654 C22.4854808,8.65045192 22.5803846,9.19968269 22.5803846,9.67150962 C22.5803846,10.0692981 22.5130769,10.409875 22.4006731,10.5734327 C22.3932692,10.5976635 22.37375,10.689875 22.37375,10.8971827 C22.37375,10.9967981 22.3777885,11.1226635 22.3925962,11.2781442 C22.5783654,11.3091058 22.7876923,11.3743942 23.0111538,11.4659327 C24.01875,10.5162212 24.3445192,9.08660577 24.115,8.60872115 C22.9175962,7.66641346 21.8083654,7.08016346 20.7193269,7.00545192 C21.3742308,7.20804808 21.9470192,7.63275962 22.2626923,8.22708654 M23.0340385,14.0895865 C23.3194231,14.338625 23.6303846,14.6166058 23.9514423,14.8878558 C24.29875,14.7700673 25.1973077,13.9630481 25.6368269,13.568625 L25.7021154,13.5093942 C24.8580769,12.8767019 23.8679808,12.2016058 23.0730769,11.8408365 C22.9155769,11.967375 22.6954808,12.1013173 22.5305769,12.194875 C22.6113462,12.6034327 22.7325,13.1035288 22.9081731,13.7146827 C22.9499038,13.8425673 22.9923077,13.9684327 23.0340385,14.0895865 M25.9632692,13.708625 L25.8522115,13.8075673 C25.2444231,14.3541058 24.6278846,14.8925673 24.2206731,15.1140096 C24.9078846,15.6793942 25.6031731,16.1693942 26.1275,16.2494904 C26.4653846,15.9587212 27.1660577,15.292375 27.3538462,14.8367019 C27.1021154,14.6159327 26.5858654,14.1858365 25.9632692,13.708625 M28.8191346,13.6857404 C28.7767308,13.341125 28.2483654,12.6626635 27.6042308,11.9478558 C27.2919231,12.3469904 26.6222115,13.0846827 26.2022115,13.489875 C26.88,14.0128558 27.4090385,14.4624712 27.5847115,14.6125673 C27.9050962,14.5163173 28.6831731,13.9940096 28.8218269,13.804875 C28.8238462,13.7638173 28.8225,13.7241058 28.8191346,13.6857404 M22.1119231,11.6900673 C21.9826923,10.794875 22.0823077,10.4946827 22.1051923,10.4415096 C22.1119231,10.4253558 22.1213462,10.4105481 22.1321154,10.3984327 C22.2936538,10.2153558 22.3589423,9.09670192 21.9786538,8.37785577 C21.4624038,7.40593269 20.1613462,6.953625 19.0696154,7.31304808 C18.2343269,7.66641346 18.4806731,9.78458654 18.9666346,11.573625 C19.9304808,11.2572788 21.3735577,11.2263173 22.1119231,11.6900673 M26.6753846,16.1828558 C27.0449038,16.0542981 27.4339423,15.7790096 27.7960577,15.4976635 C28.1238462,15.2412212 28.4657692,14.7909327 28.6596154,14.3689135 C28.3338462,14.6065096 27.9165385,14.846125 27.6634615,14.9228558 C27.5052885,15.3388173 27.0280769,15.8463173 26.6753846,16.1828558 M22.47,11.8590096 C22.5635577,11.8031442 22.6497115,11.7492981 22.72375,11.6988173 C22.6207692,11.6624712 22.5245192,11.6342019 22.4309615,11.6126635 C22.4424038,11.6900673 22.4545192,11.7721827 22.47,11.8590096 M23.3275,11.6059327 C24.1553846,12.0043942 25.13,12.6781442 25.94375,13.2926635 C26.3610577,12.8962212 27.1000962,12.0824712 27.3827885,11.7068942 C26.32875,10.5707404 25.0781731,9.42179808 25.0781731,9.42179808 C24.8843269,9.246125 24.6918269,9.079875 24.5020192,8.922375 C24.5148077,9.202375 24.465,9.53891346 24.3546154,9.89699038 C24.2334615,10.2819904 23.9460577,10.9846827 23.3275,11.6059327 M18.6657692,11.6893942 C18.4288462,10.8258365 17.9738462,8.85170192 18.3447115,7.73843269 C17.2166346,8.60804808 16.7279808,10.2375673 17.0093269,12.9938173 C17.3438462,12.4405481 18.0007692,11.9727596 18.6657692,11.6893942" id="Fill-5"></path>
                    </g>
                    <text id="3D-content-creation" opacity="0.5" font-family="AvenirLTStd-Light, Avenir LT Std" font-size="14" font-weight="300" line-spacing="20">
                        <tspan x="0" y="89">3D content creation</tspan>
                    </text>
                    <text id="MODO" font-family="AvenirLTStd-Medium, Avenir LT Std" font-size="24" font-weight="500">
                        <tspan x="0" y="67">MODO</tspan>
                    </text>
                </g>
            </g>
        </g>
    </g>
</svg>