<?xml version="1.0" encoding="UTF-8" standalone="no"?>
<svg width="118px" height="119px" viewBox="0 0 118 119" version="1.1" xmlns="http://www.w3.org/2000/svg" xmlns:xlink="http://www.w3.org/1999/xlink">
    <!-- Generator: Sketch 39 (31667) - http://www.bohemiancoding.com/sketch -->
    <title>flix</title>
    <desc>Created with Sketch.</desc>
    <defs>
        <polygon id="path-1" points="33.7176607 0.623396226 0.000251270612 0.623396226 0.000251270612 34.3393019 33.7176607 34.3393019 33.7176607 0.623396226"></polygon>
    </defs>
    <g id="Navigation" stroke="none" stroke-width="1" fill="none" fill-rule="evenodd">
        <g id="Nav-in-situation" transform="translate(-1252.000000, -111.000000)">
            <g id="products" transform="translate(30.000000, 111.000000)">
                <g id="flix" transform="translate(1222.000000, 0.000000)">
                    <g id="Page-1" transform="translate(0.626270, 0.000000)">
                        <g id="Group-3" transform="translate(0.000000, 0.037179)">
                            <mask id="mask-2" fill="white">
                                <use xlink:href="#path-1"></use>
                            </mask>
                            <g id="Clip-2"></g>
                            <path d="M17.3001038,0.629009434 C26.6074623,0.872688679 33.9548208,8.61561321 33.7118019,17.9229717 C33.4674623,27.2303302 25.7245377,34.5783491 16.4171792,34.3333491 C7.10982075,34.0903302 -0.237537736,26.348066 0.00614150943,17.0407075 C0.250481132,7.73334906 7.99274528,0.385990566 17.3001038,0.629009434 M17.2545377,2.37042453 C8.9080283,2.15117925 1.96614151,8.73976415 1.74689623,17.0862736 C1.52831132,25.4314623 8.11689623,32.3746698 16.4634057,32.5932547 C24.8092547,32.8125 31.7524623,26.2239151 31.9703868,17.8774057 C32.1896321,9.53089623 25.6003868,2.58834906 17.2545377,2.37042453" id="Fill-1" fill="#FFFFFF" mask="url(#mask-2)"></path>
                        </g>
                        <path d="M20.7949528,5.58791509 L20.7949528,6.15385849 C20.7949528,6.86376415 20.2197642,7.43895283 19.5111792,7.43895283 L14.076934,7.43895283 C13.3683491,7.43895283 12.7938208,6.86376415 12.7938208,6.15385849 L12.7938208,5.58791509 L20.7949528,5.58791509 Z" id="Fill-4" fill="#FFFFFF"></path>
                        <path d="M20.2873208,17.8279434 L13.3011887,17.8279434 C11.7559057,17.8279434 10.5025094,19.0813396 10.5025094,20.627283 C10.5025094,20.9211509 10.7428868,21.1615283 11.0380755,21.1615283 L22.5497736,21.1615283 C22.846283,21.1615283 23.0853396,20.9211509 23.0853396,20.627283 C23.0853396,19.0813396 21.8319434,17.8279434 20.2873208,17.8279434" id="Fill-6" fill="#FFFFFF"></path>
                        <path d="M17.6815377,22.4040943 C17.655783,22.3763585 17.6214434,22.3605094 17.5838019,22.3605094 L16.0048396,22.3605094 C15.9678585,22.3605094 15.9321981,22.3763585 15.9071038,22.4040943 C15.8826698,22.4305094 15.8701226,22.4681509 15.8734245,22.5038113 L16.5318208,29.7019245 C16.5384245,29.7686226 16.595217,29.8207925 16.6625755,29.8207925 L16.926066,29.8207925 C16.9940849,29.8207925 17.050217,29.7686226 17.0561604,29.7019245 L17.715217,22.5038113 C17.7191792,22.4681509 17.7072925,22.4305094 17.6815377,22.4040943" id="Fill-8" fill="#FFFFFF"></path>
                        <polygon id="Fill-10" fill="#FFFFFF" points="14.3760189 8.63740566 13.8483774 16.6286321 19.7389434 16.6286321 19.2126226 8.63740566"></polygon>
                    </g>
                    <text id="Collaborative-story" opacity="0.5" font-family="AvenirLTStd-Light, Avenir LT Std" font-size="14" font-weight="300" line-spacing="20" fill="#FFFFFF">
                        <tspan x="1" y="90">Collaborative story </tspan>
                        <tspan x="1" y="110">development</tspan>
                    </text>
                    <text id="FLIX" font-family="AvenirLTStd-Medium, Avenir LT Std" font-size="24" font-weight="500" fill="#FFFFFF">
                        <tspan x="1" y="68">FLIX</tspan>
                    </text>
                </g>
            </g>
        </g>
    </g>
</svg>