<?xml version="1.0" encoding="UTF-8" standalone="no"?>
<svg width="101px" height="118px" viewBox="0 0 101 118" version="1.1" xmlns="http://www.w3.org/2000/svg" xmlns:xlink="http://www.w3.org/1999/xlink">
    <!-- Generator: Sketch 39 (31667) - http://www.bohemiancoding.com/sketch -->
    <title>katana</title>
    <desc>Created with Sketch.</desc>
    <defs></defs>
    <g id="Navigation" stroke="none" stroke-width="1" fill="none" fill-rule="evenodd">
        <g id="Nav-in-situation" transform="translate(-437.000000, -112.000000)" fill="#FFFFFF">
            <g id="products" transform="translate(30.000000, 111.000000)">
                <g id="katana" transform="translate(407.000000, 1.000000)">
                    <g id="Page-1">
                        <path d="M17.1826442,0 C7.69293269,0 0.000336538461,7.69326923 0.000336538461,17.1823077 C0.000336538461,26.6720192 7.69293269,34.3652885 17.1826442,34.3652885 C26.6723558,34.3652885 34.3649519,26.6720192 34.3649519,17.1823077 C34.3649519,7.69326923 26.6723558,0 17.1826442,0 M17.2062019,32.5924038 C8.68639423,32.5924038 1.77860577,25.6859615 1.77860577,17.1661538 C1.77860577,8.64567308 8.68639423,1.73855769 17.2062019,1.73855769 C25.7260096,1.73855769 32.633125,8.64567308 32.633125,17.1661538 C32.633125,25.6859615 25.7260096,32.5924038 17.2062019,32.5924038" id="Fill-1"></path>
                        <path d="M30.7839135,16.9623462 C30.6344904,17.8925385 30.3167981,18.8119615 29.817375,19.6748462 C27.6197788,23.4831154 22.7514135,24.7882115 18.9438173,22.5892692 C18.4827596,22.3234038 18.0593942,22.0185 17.6743942,21.6812885 C19.518625,21.1859038 21.1306442,20.1258077 22.3112212,18.6941731 C22.362375,18.7756154 22.4108365,18.8563846 22.458625,18.9391731 C22.9580481,19.8040769 23.2764135,20.7221538 23.4258365,21.6523462 C23.5328558,20.3869615 23.3740096,19.0919615 22.9297788,17.8508077 C23.8471827,16.4339808 24.3809327,14.7445577 24.3809327,12.9312885 C24.3809327,7.92763462 20.3249712,3.87167308 15.3219904,3.87167308 C13.4010288,3.87167308 11.6200673,4.47071154 10.1534327,5.48975 C11.0338173,5.15455769 11.9882404,4.97080769 12.9870865,4.97080769 C17.3829519,4.97080769 20.9468942,8.53475 20.9468942,12.9312885 C20.9468942,13.4616731 20.8950673,13.9799423 20.796125,14.4807115 C19.4459327,13.1332115 17.7221827,12.2683077 15.8934327,11.9620577 C15.9385288,11.8792692 15.9829519,11.7964808 16.0293942,11.7150385 C16.5288173,10.8508077 17.1662212,10.1158077 17.8965096,9.52148077 C16.7489135,10.0599423 15.7069904,10.84475 14.854875,11.8483077 C13.1694904,11.7621538 11.4396827,12.1437885 9.86804808,13.0510962 C5.53545192,15.5529231 4.05064423,21.0936923 6.55247115,25.4262885 C7.51227885,27.0901346 8.92102885,28.3346538 10.5377596,29.0932115 C9.80679808,28.4982115 9.17006731,27.7638846 8.67199038,26.8989808 C6.472375,23.0927308 7.77747115,18.2230192 11.5850673,16.0254231 C12.0434327,15.7609038 12.518625,15.5468654 13.0012212,15.3819615 C12.5085288,17.2248462 12.6216058,19.1491731 13.2691058,20.8863846 C13.174875,20.8890769 13.0813173,20.8910962 12.9870865,20.8910962 C11.9882404,20.8910962 11.0338173,20.7080192 10.1534327,20.3728269 C11.1946827,21.0957115 12.3941058,21.6065769 13.6897788,21.8428269 C14.4577596,23.3478269 15.6538173,24.6556154 17.2274712,25.5635962 C21.5600673,28.0654231 27.1008365,26.5806154 29.6019904,22.2480192 C30.5631442,20.5835 30.9346827,18.7419615 30.7839135,16.9623462 M16.3295865,20.1567692 C15.3044904,18.6396538 14.8299712,16.8048462 14.994875,14.9781154 C16.8216058,14.8475385 18.6483365,15.3536923 20.148625,16.4090769 C19.3476635,18.0560962 17.9941058,19.3854231 16.3295865,20.1567692" id="Fill-3"></path>
                    </g>
                    <text id="Lighting-&amp;-look-deve" opacity="0.5" font-family="AvenirLTStd-Light, Avenir LT Std" font-size="14" font-weight="300" line-spacing="20">
                        <tspan x="2" y="89">Lighting &amp; look </tspan>
                        <tspan x="2" y="109">development</tspan>
                    </text>
                    <text id="KATANA" font-family="AvenirLTStd-Medium, Avenir LT Std" font-size="24" font-weight="500">
                        <tspan x="2" y="67">KATANA</tspan>
                    </text>
                </g>
            </g>
        </g>
    </g>
</svg>