<?xml version="1.0" encoding="UTF-8" standalone="no"?>
<svg width="139px" height="99px" viewBox="0 0 139 99" version="1.1" xmlns="http://www.w3.org/2000/svg" xmlns:xlink="http://www.w3.org/1999/xlink">
    <!-- Generator: Sketch 39 (31667) - http://www.bohemiancoding.com/sketch -->
    <title>colorway</title>
    <desc>Created with Sketch.</desc>
    <defs></defs>
    <g id="Navigation" stroke="none" stroke-width="1" fill="none" fill-rule="evenodd">
        <g id="Nav-in-situation" transform="translate(-845.000000, -111.000000)" fill="#FFFFFF">
            <g id="products" transform="translate(30.000000, 111.000000)">
                <g id="colorway" transform="translate(815.000000, 0.000000)">
                    <g id="Page-1">
                        <path d="M33.1459245,10.6370283 C29.5079057,1.85268868 19.4213019,-2.32485849 10.6376226,1.31448113 C1.85328302,4.9525 -2.32426415,15.037783 1.31375472,23.8214623 C4.95309434,32.6071226 15.0383774,36.7833491 23.8220566,33.1453302 C32.6063962,29.5073113 36.7839434,19.4213679 33.1459245,10.6370283 M23.093,31.3847642 C15.2807358,34.6206132 6.31083019,30.9053302 3.07432075,23.0924057 C-0.161528302,15.2801415 3.55375472,6.31089623 11.3666792,3.07372642 C19.1789434,-0.162122642 28.1495094,3.55316038 31.3853585,11.3660849 C34.6212075,19.1790094 30.9059245,28.1489151 23.093,31.3847642" id="Fill-1"></path>
                        <path d="M11.3752642,5.37804717 L11.3587547,5.3859717 C11.2590377,5.43417925 11.1606415,5.48304717 11.0629057,5.53257547 C10.8661132,5.63361321 10.6726226,5.73861321 10.482434,5.84823585 C9.93762264,6.16191509 9.4139434,6.5145566 8.918,6.90219811 C7.80130189,7.77521698 6.82460377,8.82587736 6.03611321,10.0039906 C5.79243396,10.3685189 5.56526415,10.744934 5.35856604,11.1319151 C5.26809434,11.3022925 5.18026415,11.4739906 5.0970566,11.6483302 L5.08913208,11.6641792 L10.2796981,13.8150283 C10.3008302,13.7740849 10.323283,13.7344623 10.3450755,13.6935189 C10.4223396,13.5541792 10.503566,13.4168208 10.5894151,13.2821038 C10.767717,13.0001226 10.9651698,12.7306887 11.1778113,12.4738019 C11.6030943,11.9620094 12.0950755,11.5056887 12.6365849,11.1187075 C12.9212075,10.9159717 13.2170566,10.7330472 13.5254528,10.5686132 L11.3752642,5.37804717 Z" id="Fill-4"></path>
                        <path d="M4.58777358,12.8016132 C4.54286792,12.9317075 4.49928302,13.0624623 4.45767925,13.1938774 C4.39098113,13.403217 4.32890566,13.6151981 4.27409434,13.8278396 C4.10701887,14.4624623 3.98683019,15.1089717 3.91550943,15.7614245 C3.76626415,17.1165189 3.82503774,18.4934057 4.08984906,19.8300094 C4.17437736,20.2612358 4.28135849,20.6878396 4.40881132,21.1071792 C4.46362264,21.2927453 4.52437736,21.4756698 4.58777358,21.657934 L4.59371698,21.6751038 L9.7849434,19.5249151 C9.77173585,19.4813302 9.7585283,19.4370849 9.74598113,19.3935 C9.70635849,19.2548208 9.66937736,19.1154811 9.63701887,18.9761415 C9.55183019,18.6043491 9.49371698,18.2266132 9.464,17.8468962 C9.40984906,17.1667075 9.44550943,16.4805755 9.56966038,15.8102925 C9.62513208,15.5151038 9.69711321,15.2218962 9.7849434,14.9346321 L4.59371698,12.7844434 L4.58777358,12.8016132 Z" id="Fill-6"></path>
                        <path d="M10.3426981,20.9829623 C8.61250943,21.6994717 6.88166038,22.4166415 5.15213208,23.1331509 C5.30864151,23.4613585 5.47967925,23.7829623 5.66326415,24.0979623 C6.03571698,24.7339057 6.46033962,25.3407925 6.93250943,25.9080566 C7.52420755,26.6199434 8.19118868,27.2704151 8.9169434,27.8456038 C9.43269811,28.2530566 9.97618868,28.6215472 10.545434,28.9490943 C10.8313774,29.1141887 11.1245849,29.2680566 11.4217547,29.4113585 L11.4382642,29.4199434 L13.5884528,24.228717 C13.5481698,24.2075849 13.5072264,24.1851321 13.4676038,24.164 C13.3282642,24.0854151 13.1909057,24.0048491 13.0548679,23.9196604 C12.7477925,23.7241887 12.4526038,23.5062642 12.1745849,23.2691887 C11.6806226,22.8472075 11.2388302,22.3638113 10.8637358,21.8328679 C10.6900566,21.5858868 10.5302453,21.3270189 10.3856226,21.0615472 L10.3618491,21.0199434 L10.3426981,20.9829623 Z" id="Fill-8"></path>
                        <path d="M19.5251792,24.7862736 L19.4855566,24.7988208 C19.3633868,24.8351415 19.2398962,24.8694811 19.1157453,24.9005189 C18.9149906,24.9500472 18.7129151,24.9929717 18.5081981,25.0266509 C18.086217,25.0966509 17.6576321,25.1323113 17.2303679,25.1323113 C17.0084811,25.1323113 16.7872547,25.1224057 16.5660283,25.1039151 C16.2166887,25.0741981 15.8706509,25.0207075 15.5298962,24.9441038 C15.3436698,24.9025 15.1581038,24.8536321 14.9745189,24.7988208 L14.9348962,24.7862736 L12.7847075,29.9768396 C12.8164057,29.988066 12.8487642,29.9992925 12.8804623,30.0105189 C12.9841415,30.0461792 13.0891415,30.0811792 13.1941415,30.1148585 C13.4034811,30.1808962 13.6154623,30.2416509 13.8281038,30.297783 C14.4627264,30.4648585 15.1098962,30.5837264 15.7616887,30.6563679 C16.2483868,30.7091981 16.7383868,30.736934 17.227066,30.736934 C18.1007453,30.736934 18.9744245,30.6510849 19.8315943,30.4820283 C20.2615,30.3968396 20.6881038,30.2898585 21.1087642,30.1637264 C21.2930094,30.1075943 21.475934,30.0461792 21.6581981,29.9834434 L21.6753679,29.9768396 L19.5251792,24.7862736 Z" id="Fill-10"></path>
                        <path d="M17.204283,3.94628302 L17.1481509,3.94628302 C16.9031509,3.94826415 16.6588113,3.95618868 16.4131509,3.97071698 C15.8967358,4.00241509 15.3809811,4.06449057 14.8705094,4.15496226 C14.4122075,4.23750943 13.9585283,4.34316981 13.5101321,4.47260377 C13.2717358,4.5419434 13.0366415,4.61854717 12.8028679,4.69845283 L12.7843774,4.7050566 L14.934566,9.8969434 C14.9788113,9.88373585 15.0223962,9.8705283 15.0673019,9.85732075 C15.2046604,9.81703774 15.344,9.78071698 15.4833396,9.74901887 C15.8551321,9.66383019 16.2328679,9.60571698 16.6125849,9.57467925 C16.8186226,9.55883019 17.024,9.55024528 17.2300377,9.55024528 C17.7055094,9.55024528 18.1809811,9.59449057 18.6491887,9.681 C18.9456981,9.73581132 19.2375849,9.80779245 19.5248491,9.8969434 L21.6750377,4.7050566 C21.3838113,4.60203774 21.0886226,4.51024528 20.7914528,4.42769811 C20.079566,4.23156604 19.3518302,4.09486792 18.6168302,4.01826415 C18.3731509,3.99316981 18.1274906,3.97401887 17.8831509,3.9614717 C17.7206981,3.95420755 17.5562642,3.94958491 17.3938113,3.94760377 C17.3304151,3.94628302 17.2676792,3.94628302 17.204283,3.94628302" id="Fill-12"></path>
                        <path d="M23.0008113,5.33987736 C22.2843019,7.07006604 21.5671321,8.80091509 20.8506226,10.5304434 C20.8909057,10.5528962 20.9318491,10.5746887 20.9714717,10.5958208 C21.0130755,10.6195943 21.0546792,10.6427075 21.0969434,10.6671415 C21.3452453,10.8104434 21.5856226,10.9662925 21.8167547,11.1353491 C22.3278868,11.5111038 22.7927925,11.9482736 23.1982642,12.4356321 C23.4109057,12.6925189 23.6083585,12.9619528 23.7866604,13.243934 C23.8817547,13.3918585 23.9702453,13.5437453 24.0547736,13.6982736 L24.0772264,13.7398774 L24.0963774,13.7768585 L29.2869434,11.6260094 C29.130434,11.2984623 28.9593962,10.9768585 28.7758113,10.6618585 C28.3901509,10.0014811 27.9470377,9.37412264 27.4543962,8.78836792 C26.8580755,8.07978302 26.1877925,7.43459434 25.4574151,6.8640283 C24.9832642,6.4935566 24.4840189,6.15478302 23.9649623,5.85100943 C23.751,5.72685849 23.5343962,5.60799057 23.3131698,5.49440566 C23.215434,5.44487736 23.1170377,5.39600943 23.0173208,5.34780189 L23.0008113,5.33987736 Z" id="Fill-14"></path>
                        <path d="M29.8660283,12.7842453 C28.1358396,13.5007547 26.4049906,14.2179245 24.6754623,14.934434 C24.6886698,14.9786792 24.7018774,15.0222642 24.7137642,15.0658491 C24.7269717,15.1120755 24.7401792,15.1589623 24.7527264,15.2045283 C24.7982925,15.3742453 24.8379151,15.5446226 24.8729151,15.7169811 C24.9396132,16.0590566 24.9845189,16.4057547 25.0063113,16.7550943 C25.0446132,17.3877358 25.0063113,18.025 24.8900849,18.6483962 C24.835934,18.9442453 24.7626321,19.2367925 24.6754623,19.524717 L29.8660283,21.675566 C29.9782925,21.3572642 30.0780094,21.0356604 30.1651792,20.7107547 C30.4068774,19.8139623 30.5541415,18.8914151 30.6049906,17.9649057 C30.6498962,17.1480189 30.6195189,16.3284906 30.5158396,15.5182075 C30.4313113,14.8664151 30.2998962,14.2212264 30.1202736,13.5885849 C30.0463113,13.3237736 29.9624434,13.0622642 29.8719717,12.8014151 L29.8660283,12.7842453 Z" id="Fill-16"></path>
                        <path d="M24.1521792,20.9619623 L24.1330283,20.9989434 C23.9818019,21.2796038 23.814066,21.5516792 23.6311415,21.8118679 C23.2652925,22.3302642 22.8367075,22.8030943 22.3559528,23.2171509 C22.0554811,23.4766792 21.7351981,23.7130943 21.399066,23.9237547 C21.2504811,24.0175283 21.0972736,24.1053585 20.9427453,24.188566 L20.9064245,24.207717 L23.0566132,29.3989434 C23.0869906,29.3844151 23.1173679,29.3692264 23.1484057,29.3553585 C23.4442547,29.2087547 23.7354811,29.053566 24.0207642,28.8878113 C24.5642547,28.5701698 25.0846321,28.2148868 25.577934,27.8246038 C26.6252925,26.9958302 27.5471792,26.0092264 28.3033113,24.9083774 C28.5681226,24.5246981 28.8118019,24.1264906 29.0343491,23.7170566 C29.1393491,23.523566 29.239066,23.327434 29.3361415,23.1286604 L29.3427453,23.1121509 L24.1521792,20.9619623 Z" id="Fill-18"></path>
                    </g>
                    <text id="Iterative-look-desig" opacity="0.5" font-family="AvenirLTStd-Light, Avenir LT Std" font-size="14" font-weight="300" line-spacing="20">
                        <tspan x="0" y="90">Iterative look design</tspan>
                    </text>
                    <text id="COLORWAY" font-family="AvenirLTStd-Medium, Avenir LT Std" font-size="24" font-weight="500">
                        <tspan x="0" y="68">COLORWAY</tspan>
                    </text>
                </g>
            </g>
        </g>
    </g>
</svg>