<?xml version="1.0" encoding="UTF-8" standalone="no"?>
<svg width="85px" height="35px" viewBox="0 0 85 35" version="1.1" xmlns="http://www.w3.org/2000/svg" xmlns:xlink="http://www.w3.org/1999/xlink">
    <!-- Generator: Sketch 39 (31667) - http://www.bohemiancoding.com/sketch -->
    <title>Page 1</title>
    <desc>Created with Sketch.</desc>
    <defs>
        <polygon id="path-1" points="33.7176607 0.623396226 0.000251270612 0.623396226 0.000251270612 34.3393019 33.7176607 34.3393019 33.7176607 0.623396226"></polygon>
        <polygon id="path-3" points="13.3409434 17.3376132 13.3409434 0.429311321 0.109796075 0.429311321 0.109796075 17.3376132 13.3409434 17.3376132"></polygon>
    </defs>
    <g id="Navigation" stroke="none" stroke-width="1" fill="none" fill-rule="evenodd" opacity="1">
        <g id="Nav-in-situation" transform="translate(-1100.000000, -118.000000)">
            <g id="products" transform="translate(31.000000, 118.000000)">
                <g id="Page-1" transform="translate(1069.626270, 0.000000)">
                    <g id="Group-3" transform="translate(0.000000, 0.037179)">
                        <mask id="mask-2" fill="white">
                            <use xlink:href="#path-1"></use>
                        </mask>
                        <g id="Clip-2"></g>
                        <path d="M17.3001038,0.629009434 C26.6074623,0.872688679 33.9548208,8.61561321 33.7118019,17.9229717 C33.4674623,27.2303302 25.7245377,34.5783491 16.4171792,34.3333491 C7.10982075,34.0903302 -0.237537736,26.348066 0.00614150943,17.0407075 C0.250481132,7.73334906 7.99274528,0.385990566 17.3001038,0.629009434 M17.2545377,2.37042453 C8.9080283,2.15117925 1.96614151,8.73976415 1.74689623,17.0862736 C1.52831132,25.4314623 8.11689623,32.3746698 16.4634057,32.5932547 C24.8092547,32.8125 31.7524623,26.2239151 31.9703868,17.8774057 C32.1896321,9.53089623 25.6003868,2.58834906 17.2545377,2.37042453" id="Fill-1" fill="#FFFFFF" mask="url(#mask-2)"></path>
                    </g>
                    <path d="M20.7949528,5.58791509 L20.7949528,6.15385849 C20.7949528,6.86376415 20.2197642,7.43895283 19.5111792,7.43895283 L14.076934,7.43895283 C13.3683491,7.43895283 12.7938208,6.86376415 12.7938208,6.15385849 L12.7938208,5.58791509 L20.7949528,5.58791509 Z" id="Fill-4" fill="#FFFFFF"></path>
                    <path d="M20.2873208,17.8279434 L13.3011887,17.8279434 C11.7559057,17.8279434 10.5025094,19.0813396 10.5025094,20.627283 C10.5025094,20.9211509 10.7428868,21.1615283 11.0380755,21.1615283 L22.5497736,21.1615283 C22.846283,21.1615283 23.0853396,20.9211509 23.0853396,20.627283 C23.0853396,19.0813396 21.8319434,17.8279434 20.2873208,17.8279434" id="Fill-6" fill="#FFFFFF"></path>
                    <path d="M17.6815377,22.4040943 C17.655783,22.3763585 17.6214434,22.3605094 17.5838019,22.3605094 L16.0048396,22.3605094 C15.9678585,22.3605094 15.9321981,22.3763585 15.9071038,22.4040943 C15.8826698,22.4305094 15.8701226,22.4681509 15.8734245,22.5038113 L16.5318208,29.7019245 C16.5384245,29.7686226 16.595217,29.8207925 16.6625755,29.8207925 L16.926066,29.8207925 C16.9940849,29.8207925 17.050217,29.7686226 17.0561604,29.7019245 L17.715217,22.5038113 C17.7191792,22.4681509 17.7072925,22.4305094 17.6815377,22.4040943" id="Fill-8" fill="#FFFFFF"></path>
                    <polygon id="Fill-10" fill="#FFFFFF" points="14.3760189 8.63740566 13.8483774 16.6286321 19.7389434 16.6286321 19.2126226 8.63740566"></polygon>
                    <path d="M41.2550283,12.1676509 L41.2550283,16.2976509 L46.0434245,16.2976509 C46.6271981,16.2976509 47.1006887,16.7711415 47.1006887,17.3542547 L47.1006887,18.2602925 C47.1006887,18.844066 46.6271981,19.3175566 46.0434245,19.3175566 L41.2550283,19.3175566 L41.2550283,24.9036887 C41.2550283,25.4868019 40.7815377,25.9602925 40.1984245,25.9602925 L39.0269151,25.9602925 C38.4424811,25.9602925 37.9703113,25.4868019 37.9703113,24.9036887 L37.9703113,10.1085943 C37.9703113,9.52416038 38.4424811,9.05199057 39.0269151,9.05199057 L47.7346509,9.05199057 C48.3184245,9.05199057 48.7919151,9.52416038 48.7919151,10.1085943 L48.7919151,11.1110472 C48.7919151,11.6941604 48.3184245,12.1676509 47.7346509,12.1676509 L41.2550283,12.1676509 Z" id="Fill-12" fill="#FFFFFF"></path>
                    <path d="M60.8150094,22.8443679 C61.3981226,22.8443679 61.8716132,23.3178585 61.8716132,23.9009717 L61.8716132,24.9034245 C61.8716132,25.4865377 61.3981226,25.9600283 60.8150094,25.9600283 L52.0352925,25.9600283 C51.4508585,25.9600283 50.9780283,25.4865377 50.9780283,24.9034245 L50.9780283,10.1083302 C50.9780283,9.5245566 51.4508585,9.05172642 52.0352925,9.05172642 L53.2061415,9.05172642 C53.7892547,9.05172642 54.2627453,9.5245566 54.2627453,10.1083302 L54.2627453,22.8443679 L60.8150094,22.8443679 Z" id="Fill-14" fill="#FFFFFF"></path>
                    <path d="M65.7188396,25.9601604 C65.1357264,25.9601604 64.6622358,25.4866698 64.6622358,24.9035566 L64.6622358,10.1078019 C64.6622358,9.5240283 65.1357264,9.05053774 65.7188396,9.05053774 L66.8896887,9.05053774 C67.4741226,9.05053774 67.9469528,9.5240283 67.9469528,10.1078019 L67.9469528,24.9035566 C67.9469528,25.4866698 67.4741226,25.9601604 66.8896887,25.9601604 L65.7188396,25.9601604 Z" id="Fill-16" fill="#FFFFFF"></path>
                    <g id="Group-20" transform="translate(70.660377, 8.622085)">
                        <mask id="mask-4" fill="white">
                            <use xlink:href="#path-3"></use>
                        </mask>
                        <g id="Clip-19"></g>
                        <path d="M6.71319811,11.4444057 C6.69404717,11.4444057 4.3305566,15.3881792 3.47140566,16.8238396 C3.27989623,17.1421415 2.93451887,17.3376132 2.56272642,17.3376132 L1.16734906,17.3376132 C0.782349057,17.3376132 0.427066038,17.128934 0.2415,16.7908208 C0.0552735849,16.4540283 0.0671603774,16.0426132 0.273198113,15.7170472 L4.7565,8.61799057 L0.629141509,2.0485566 C0.425084906,1.72233019 0.412537736,1.31091509 0.598764151,0.975443396 C0.784990566,0.637990566 1.13961321,0.429311321 1.52461321,0.429311321 L2.88895283,0.429311321 C3.26734906,0.429311321 3.61668868,0.63204717 3.80621698,0.960254717 C4.60329245,2.34968868 6.69404717,5.98506604 6.71319811,5.98506604 L6.73763208,5.98506604 C6.75678302,5.98506604 8.84753774,2.34968868 9.64593396,0.960254717 C9.83414151,0.63204717 10.1841415,0.429311321 10.5618774,0.429311321 L11.926217,0.429311321 C12.311217,0.429311321 12.6658396,0.637990566 12.852066,0.975443396 C13.0382925,1.31091509 13.0257453,1.72233019 12.8216887,2.0485566 L8.69433019,8.61799057 L13.1776321,15.7170472 C13.3836698,16.0426132 13.3955566,16.4540283 13.2093302,16.7908208 C13.0237642,17.128934 12.6698019,17.3376132 12.2834811,17.3376132 L10.9092358,17.3376132 C10.5387642,17.3376132 10.1953679,17.1434623 10.0038585,16.8258208 C9.13942453,15.3928019 6.75678302,11.4444057 6.73763208,11.4444057 L6.71319811,11.4444057 Z" id="Fill-18" fill="#FFFFFF" mask="url(#mask-4)"></path>
                    </g>
                </g>
            </g>
        </g>
    </g>
</svg>