<?xml version="1.0" encoding="UTF-8" standalone="no"?>
<svg width="112px" height="98px" viewBox="0 0 112 98" version="1.1" xmlns="http://www.w3.org/2000/svg" xmlns:xlink="http://www.w3.org/1999/xlink">
    <!-- Generator: Sketch 39 (31667) - http://www.bohemiancoding.com/sketch -->
    <title>mari</title>
    <desc>Created with Sketch.</desc>
    <defs></defs>
    <g id="Navigation" stroke="none" stroke-width="1" fill="none" fill-rule="evenodd">
        <g id="Nav-in-situation" transform="translate(-642.000000, -112.000000)" fill="#FFFFFF">
            <g id="products" transform="translate(30.000000, 111.000000)">
                <g id="mari" transform="translate(612.000000, 1.000000)">
                    <g id="Page-1">
                        <path d="M12.8839038,7.71803846 C13.4391923,7.79880769 13.7414038,6.88476923 13.2305385,6.46207692 C12.65775,5.99025 11.9092885,7.53025 12.8839038,7.71803846" id="Fill-1"></path>
                        <path d="M14.6610288,6.54856731 C15.362375,6.63270192 15.4922788,5.63318269 14.9268942,5.347125 C14.2013173,4.98029808 13.8297788,6.36616346 14.6610288,6.54856731" id="Fill-3"></path>
                        <path d="M6.531,14.3403077 C6.85138462,14.2144423 7.04657692,13.9458846 6.73561538,13.61675 C6.42532692,13.2882885 6.35330769,13.3293462 6.04975,13.3959808 C4.81465385,13.748 5.89359615,14.5227115 6.531,14.3403077" id="Fill-5"></path>
                        <path d="M23.4355288,9.58427885 C23.6441827,9.67581731 24.2095673,9.61524038 24.408125,9.47658654 C24.6894712,9.279375 24.5117788,8.91254808 24.7049519,8.77927885 C24.9661058,8.59822115 25.1720673,8.30475962 25.0367788,7.94668269 C24.915625,7.62629808 24.5844712,7.40889423 24.3226442,7.21100962 C23.9773558,6.94649038 23.7491827,6.88995192 23.3163942,7.08245192 C22.9953365,7.22514423 22.5827404,7.84504808 22.6412981,8.623125 C22.6830288,9.03841346 23.0713942,9.42341346 23.4355288,9.58427885" id="Fill-7"></path>
                        <path d="M26.2203173,12.8286442 C27.2373365,12.8286442 27.1094519,10.9171058 26.1321442,11.5275865 C25.5283942,11.9058558 25.2261827,12.8286442 26.2203173,12.8286442" id="Fill-9"></path>
                        <path d="M5.93647115,17.0872019 C6.180125,17.1881635 6.48099038,17.1982596 6.69300962,17.0205673 C7.14464423,16.6449904 6.626375,16.3340288 6.43656731,16.2633558 C6.20839423,16.1792212 5.61474038,16.2519135 5.515125,16.5642212 C5.43839423,16.8072019 5.75406731,17.0111442 5.93647115,17.0872019" id="Fill-11"></path>
                        <path d="M9.05429808,26.20975 C9.05429808,26.7441731 9.73275962,27.6326346 10.5155481,27.5202308 C11.2969904,27.4105192 11.7028558,27.0006154 11.7775673,26.6324423 C11.7775673,26.6324423 11.8677596,26.2676346 11.8166058,25.9284038 C11.5285288,24.0161923 9.05429808,24.3830192 9.05429808,26.20975" id="Fill-13"></path>
                        <path d="M29.5483462,17.0244712 C29.5483462,17.0244712 29.7031538,16.2874519 29.0576731,16.1057212 C28.6329615,15.9859135 27.9726731,16.2410096 27.9726731,16.7377404 C27.9585385,17.1335096 29.3915192,17.7163942 29.5483462,17.0244712" id="Fill-15"></path>
                        <path d="M30.0594135,19.9895096 C29.8756635,19.7889327 29.6306635,19.7552788 29.3122981,19.8246058 C28.9730673,19.8972981 28.7381635,20.1517212 28.6627788,20.3570096 C28.5880673,20.5622981 28.6560481,21.1640288 29.9369135,20.7918173 C30.317875,20.6948942 30.3198942,20.2520096 30.0594135,19.9895096" id="Fill-17"></path>
                        <path d="M27.4144904,18.6539231 C27.2267019,18.6478654 27.1674712,18.6364231 27.0442981,18.8013269 C26.9372788,18.9433462 26.8968942,19.1284423 26.912375,19.3027692 C26.9399712,19.6117115 27.1540096,19.9024808 27.4871827,19.8984423 C28.1824712,19.8896923 28.2134327,18.6539231 27.4144904,18.6539231" id="Fill-19"></path>
                        <path d="M23.1302885,12.7966731 C22.6954808,12.9339808 23.3241346,13.55725 23.6209615,13.4132115 C24.2025,13.0510962 23.6324038,12.6378269 23.1302885,12.7966731" id="Fill-21"></path>
                        <path d="M23.7406346,24.1690481 C23.5400577,24.1804904 23.4283269,24.1515481 23.2560192,24.3332788 C23.1523654,24.4423173 23.0938077,24.5870288 23.1032308,24.7377981 C23.1261154,25.1100096 23.4875577,25.3819327 23.8442885,25.3778942 C24.1740962,25.3752019 24.5772692,25.0440481 24.5590962,24.6529904 C24.5429423,24.2605865 24.1680385,24.1690481 23.7406346,24.1690481" id="Fill-23"></path>
                        <path d="M26.0931731,21.6486442 L26.0898077,21.6499904 C25.8003846,21.7994135 25.7566346,21.445375 25.7525962,21.3962404 L25.7519231,21.3901827 C25.7021154,21.1929712 25.27875,21.0469135 25.1320192,21.0415288 C24.9381731,21.034125 24.4131731,20.8900865 24.0954808,20.4721058 C23.7791346,20.0547981 23.9595192,19.7815288 24.2684615,19.5661442 C24.5780769,19.3487404 24.4347115,19.3346058 24.8230769,19.1838365 C25.2121154,19.0323942 25.1683654,18.9751827 25.3272115,18.8163365 C25.4847115,18.6574904 25.6799038,18.4784519 26.0534615,18.3922981 C26.4283654,18.3047981 26.5084615,18.2045096 26.60875,18.1250865 C26.7097115,18.0456635 26.8463462,17.8006635 26.3994231,17.7434519 C25.9531731,17.6855673 25.6583654,17.4345096 25.6011538,17.2823942 C25.5432692,17.1309519 25.4860577,16.6631635 24.9025,16.9155673 C24.1533654,17.1821058 23.6707692,17.0670096 23.4479808,16.8294135 C23.2245192,16.5918173 22.8072115,15.6407596 22.7567308,15.2530673 C22.7069231,14.8633558 22.6853846,14.8270096 22.2317308,14.0570096 C21.7780769,13.2870096 22.3320192,12.6751827 22.6557692,12.257875 C22.9795192,11.8392212 23.5058654,11.6601827 24.0382692,11.3640288 C24.4629808,11.0840288 24.3196154,10.4715288 23.7145192,10.2413365 C22.6194231,9.75133654 22.5770192,10.6949904 22.4969231,11.1701827 C22.3468269,11.6527788 21.9941346,11.6669135 21.8352885,11.6238365 C21.6764423,11.5800865 21.4677885,11.5585481 21.2093269,11.9401827 C20.8418269,12.4665288 19.6390385,11.5154712 19.4377885,11.3350865 C19.2365385,11.155375 18.8973077,10.8464327 18.9551923,10.4425865 C19.0130769,10.0400865 19.0063462,10.0609519 18.92625,9.83008654 C18.9114423,9.72239423 18.8400962,9.64364423 18.8616346,9.43499038 C19.0130769,8.65758654 19.74,9.247875 19.8914423,8.11710577 C19.74,6.82816346 18.725,7.20239423 18.3790385,7.51200962 C18.03375,7.82229808 18.0122115,8.10229808 18.3649038,8.55595192 C18.7175962,9.00960577 18.7465385,9.11124038 18.6240385,9.30508654 C18.5015385,9.49960577 18.48,9.41345192 18.4725962,9.76614423 C18.3292308,10.630375 17.7813462,10.7737404 17.7813462,10.7737404 C17.3714423,10.8962404 16.6936538,10.7239327 16.3200962,10.6088365 C15.9458654,10.4937404 15.6860577,10.0542212 15.5568269,9.58643269 C15.4269231,9.11864423 15.5635577,8.93758654 14.9308654,8.66499038 C14.2968269,8.39104808 14.0659615,8.94499038 14.3547115,9.18999038 C14.6421154,9.43499038 14.7935577,9.25527885 14.8299038,9.73720192 C14.8655769,10.2197981 14.9086538,10.140375 15.1105769,10.4789327 C15.3118269,10.8174904 14.7861538,10.9177788 14.3473077,11.0052788 C13.9084615,11.0914327 13.5557692,11.4589327 13.3531731,11.6601827 C13.1519231,11.8614327 12.7918269,12.0054712 12.5468269,12.0344135 C12.3031731,12.0626827 12.0790385,12.135375 11.8347115,12.2720096 C11.5903846,12.4079712 11.0781731,12.170375 10.8338462,11.8250865 C10.5888462,11.4804712 10.0126923,11.0187404 10.0126923,11.0187404 C9.49509615,10.4863365 10.0275,10.2776827 9.64653846,9.89604808 C9.0125,9.46393269 8.60259615,10.2339327 8.67394231,10.586625 C8.74528846,10.9399904 9.10538462,10.8901827 9.17134615,11.1412404 C9.23528846,11.3929712 8.96942308,11.4589327 9.135,11.7530673 C9.30057692,12.047875 9.41567308,12.0202788 10.3653846,12.4227788 C11.3164423,12.826625 10.8129808,13.6545096 10.6393269,14.0502788 C10.4670192,14.4467212 10.4670192,14.5396058 9.99923077,14.5685481 C9.53144231,14.5968173 9.05557692,14.4029712 8.76009615,14.2158558 C8.46528846,14.0280673 7.9975,14.0718173 8.08365385,14.4319135 C8.16980769,14.7920096 8.63019231,14.7556635 8.98288462,14.7772019 C9.33625,14.7994135 9.67413462,14.9293173 10.0874038,15.0962404 C10.5006731,15.2645096 10.1789423,15.8931635 10.1277885,16.2317212 C10.0779808,16.5696058 9.37259615,16.7432596 8.51173077,16.5823942 C7.65288462,16.4201827 7.47115385,16.6281635 7.45769231,16.8657596 C7.44288462,17.1033558 7.55798077,17.1672981 9.03403846,16.9586442 C10.5100962,16.7506635 10.3081731,17.9386442 10.4454808,18.6076827 C10.5100962,18.8748942 10.5168269,19.1037404 10.5316346,19.3924904 C10.5410577,19.581625 10.3303846,19.9686442 10.0853846,20.0547981 C9.97028846,20.0951827 9.44730769,19.9100865 9.22182692,19.9538365 C8.91894231,20.0110481 9.01115385,19.9827788 8.73182692,19.9827788 C8.37173077,19.9827788 8.34278846,19.9538365 8.08836538,20.0871058 C7.93826923,20.1658558 7.91875,20.2062404 7.68048077,20.2271058 C7.44288462,20.2486442 7.11913462,20.2311442 6.7725,20.4424904 C6.39894231,20.6740288 6.13980769,20.4586442 6.13980769,20.4586442 C5.60740385,20.2849904 5.34759615,20.6740288 5.69355769,21.1202788 C5.88,21.2784519 5.98096154,21.4972019 6.35519231,21.3511442 C6.68634615,21.2212404 6.84519231,21.1276827 7.32038462,20.7749904 C7.79625,20.4222981 8.02038462,20.5124904 8.61673077,20.5299904 C9.12019231,20.544125 9.17807692,20.4647019 9.86932692,20.8463365 C10.5605769,21.2286442 10.1715385,21.235375 10.0200962,21.3437404 C9.86932692,21.4514327 9.76903846,21.6102788 9.85519231,22.0565288 C9.94134615,22.5027788 10.4380769,22.5175865 10.9556731,22.2288365 C11.4746154,21.9414327 11.6179808,22.6750865 11.6469231,22.941625 C11.6765385,23.2081635 11.7478846,23.7405673 12.3381731,24.0865288 C12.9291346,24.4318173 14.0659615,23.8994135 14.7222115,23.7479712 C15.3771154,23.5965288 15.8085577,23.8199904 16.0609615,24.2305673 C16.3133654,24.6404712 15.9169231,24.936625 16.0609615,25.5982596 C16.2548077,26.2821058 16.0973077,26.5560481 16.3483654,27.2762404 C16.6007692,27.9957596 17.22,27.5495096 17.4501923,27.2109519 C17.6810577,26.8730673 17.6023077,26.3117212 17.4798077,26.0734519 C17.3573077,25.8358558 17.3135577,25.8796058 17.2698077,25.137875 C17.3525962,24.5597019 17.1008654,24.4735481 17.0995192,24.2689327 C17.0988462,24.0643173 17.1775962,23.9505673 17.4798077,23.7264327 C17.7813462,23.5029712 17.8325,23.431625 18.6738462,23.2801827 C19.5165385,23.1294135 19.9277885,23.5251827 20.43125,24.1080673 C20.9353846,24.691625 21.9288462,24.3389327 21.9288462,24.3389327 C22.6921154,24.0804712 22.0802885,23.5177788 21.8716346,23.1576827 C21.6616346,22.7975865 21.9793269,22.6461442 22.6126923,22.539125 C23.2467308,22.4314327 23.4116346,22.0915288 23.2965385,21.6385481 C23.1814423,21.1848942 23.3328846,21.2575865 23.4331731,21.0199904 C23.5341346,20.7823942 23.5778846,20.8113365 23.8518269,20.8254712 C24.1244231,20.8389327 24.7147115,21.1788365 24.9166346,21.3726827 C25.0297115,21.480375 25.13,21.6311442 25.2605769,21.6923942 C25.2794231,21.7065288 25.3150962,21.7179712 25.3783654,21.725375 C26.0548077,21.7213365 25.7451923,21.9643173 25.8993269,22.1864327 C25.9450962,22.2658558 26.0285577,22.3398942 26.1618269,22.3957596 C26.6424038,22.5983558 27.3747115,22.6044135 26.94125,21.8990288 C26.6767308,21.5093173 26.3233654,21.5052788 26.0931731,21.6486442" id="Fill-25"></path>
                        <path d="M17.7165962,28.1770192 C17.5725577,28.0585577 17.5153462,27.9643269 17.2716923,27.9899038 C17.1242885,28.0067308 16.9849615,28.07875 16.8853462,28.1965385 C16.6423654,28.4893269 16.7015962,28.9214423 16.9486154,29.1455769 C17.1767885,29.3528846 17.68025,29.3623077 17.9407308,29.0594231 C18.2012115,28.7558654 18.0093846,28.4489423 17.7165962,28.1770192" id="Fill-27"></path>
                        <path d="M17.1826442,0 C7.69293269,0 0.000336538461,7.69326923 0.000336538461,17.1823077 C0.000336538461,26.6720192 7.69293269,34.3652885 17.1826442,34.3652885 C26.6723558,34.3652885 34.3649519,26.6720192 34.3649519,17.1823077 C34.3649519,7.69326923 26.6723558,0 17.1826442,0 M17.2062019,32.5924038 C8.68639423,32.5924038 1.77860577,25.6859615 1.77860577,17.1648077 C1.77860577,8.64567308 8.68639423,1.73855769 17.2062019,1.73855769 C25.7266827,1.73855769 32.633125,8.64567308 32.633125,17.1648077 C32.633125,25.6859615 25.7266827,32.5924038 17.2062019,32.5924038" id="Fill-29"></path>
                    </g>
                    <text id="Hi-res-3D-painting" opacity="0.5" font-family="AvenirLTStd-Light, Avenir LT Std" font-size="14" font-weight="300" line-spacing="20">
                        <tspan x="0" y="89">Hi-res 3D painting</tspan>
                    </text>
                    <text id="MARI" font-family="AvenirLTStd-Medium, Avenir LT Std" font-size="24" font-weight="500">
                        <tspan x="0" y="67">MARI</tspan>
                    </text>
                </g>
            </g>
        </g>
    </g>
</svg>