<?xml version="1.0" encoding="UTF-8" standalone="no"?>
<svg width="180px" height="40px" viewBox="0 0 180 40" version="1.1" xmlns="http://www.w3.org/2000/svg" xmlns:xlink="http://www.w3.org/1999/xlink">
    <!-- Generator: Sketch 39 (31667) - http://www.bohemiancoding.com/sketch -->
    <title>Group 6</title>
    <desc>Created with Sketch.</desc>
    <defs></defs>
    <g id="Product-Page" stroke="none" stroke-width="1" fill="none" fill-rule="evenodd">
        <g id="TF_Product-Page-1440" transform="translate(-723.000000, -1038.000000)">
            <g id="module-1-c" transform="translate(164.000000, 1021.000000)">
                <g id="nuke-title" transform="translate(555.000000, 0.000000)">
                    <g id="Group-6">
                        <text id="NUKE" font-family="AvenirLTStd-Medium, Avenir LT Std" font-size="54" font-weight="500" line-spacing="62" fill="#494845">
                            <tspan x="0" y="41">NUKE</tspan>
                        </text>
                        <path d="M161.119973,37.6685083 L162.530165,37.6685083 L162.530165,18.1933702 L161.424132,18.1933702 L157,19.8232044 L157.387112,20.9558011 L161.119973,19.6850829 L161.119973,37.6685083 Z M175.221895,38 C180.143742,38 183.268285,33.3314917 183.268285,28 L183.268285,27.9447514 C183.268285,22.6132597 180.199044,18 175.277196,18 C170.355349,18 167.230806,22.6685083 167.230806,28 L167.230806,28.0552486 C167.230806,33.3867403 170.300048,38 175.221895,38 L175.221895,38 Z M175.277196,36.7016575 C171.267827,36.7016575 168.72395,32.4751381 168.72395,28 L168.72395,27.9447514 C168.72395,23.441989 171.212525,19.2983425 175.221895,19.2983425 C179.231265,19.2983425 181.775141,23.4972376 181.775141,28 L181.775141,28.0552486 C181.775141,32.5303867 179.286566,36.7016575 175.277196,36.7016575 L175.277196,36.7016575 Z" id="10" fill="#000000" opacity="0.4"></path>
                    </g>
                </g>
            </g>
        </g>
    </g>
</svg>