<?xml version="1.0" encoding="UTF-8" standalone="no"?>
<svg width="165px" height="46px" viewBox="0 0 165 46" version="1.1" xmlns="http://www.w3.org/2000/svg" xmlns:xlink="http://www.w3.org/1999/xlink">
    <!-- Generator: Sketch 3.8.3 (29802) - http://www.bohemiancoding.com/sketch -->
    <title>nuke-logo</title>
    <desc>Created with Sketch.</desc>
    <defs></defs>
    <g id="Product-Page" stroke="none" stroke-width="1" fill="none" fill-rule="evenodd">
        <g id="Desktop-HD-Copy" transform="translate(-82.000000, -221.000000)" fill="#FFFFFF">
            <g id="header" transform="translate(80.000000, 221.000000)">
                <g id="main-content-no-product-logo">
                    <g id="nuke-logo" transform="translate(2.000000, 0.000000)">
                        <g transform="translate(0.000000, 0.000084)">
                            <path d="M23.5366529,0.00796416454 C36.1993023,0.336142669 46.1953288,10.777437 45.8642519,23.3306081 C45.5317899,35.882406 34.998283,45.7909252 22.3356336,45.4613736 C9.67298418,45.1331951 -0.32304232,34.6919007 0.00803450023,22.1401028 C0.340496579,9.58830485 10.8740034,-0.32021434 23.5366529,0.00796416454 M23.4743162,2.35601957 C12.119351,2.06079623 2.67465742,10.9463322 2.37682681,22.2005206 C2.0789962,33.4560821 11.043005,42.819468 22.3979702,43.1146913 C33.7529355,43.4099146 43.1990143,34.5243787 43.4954596,23.2688171 C43.7932902,12.0132556 34.8292815,2.64986978 23.4743162,2.35601957" id="Fill-1"></path>
                            <path d="M25.0518488,15.3962405 C24.1445044,16.2503285 24.5005158,18.182325 25.9107091,19.6556954 C27.3209025,21.1276927 29.2491825,21.5821993 30.1565269,20.7281113 C31.0638714,19.8740234 30.7438766,17.9063255 29.3350686,16.4343282 C27.9248752,14.9623308 25.9591932,14.5421525 25.0518488,15.3962405 M36.4885443,9.92980274 C39.4779325,13.0358269 40.519647,16.4260894 40.519647,16.4260894 C40.519647,16.4260894 41.1125377,18.0518774 39.2424385,18.0518774 C37.7061866,18.0518774 34.6600028,18.0793401 34.6600028,18.0793401 C34.6600028,18.0793401 33.209637,17.9694895 33.1279068,19.1888306 C33.0253976,20.723992 33.0669554,22.0078702 33.0669554,22.0078702 C33.0669554,22.0078702 33.1112837,23.3878677 34.0117018,24.4383135 L38.7368191,29.3733493 C38.7368191,29.3733493 39.968314,30.360631 38.966772,32.0564488 C37.7325066,34.1477286 34.5020834,38.5953026 28.2240911,40.4394186 C26.8277504,40.849985 26.7044624,39.7295094 26.7529464,38.9729138 C26.7834221,38.4868251 27.3181319,27.6061286 27.3181319,27.6061286 C27.3181319,27.6061286 27.6699876,25.8100722 26.284729,24.3627913 C24.7983464,22.8097792 23.8757642,21.7909154 23.8757642,21.7909154 C23.8757642,21.7909154 22.8243528,20.7473352 21.3379703,19.1943231 C19.9527116,17.7470422 18.1241702,18.0024447 18.1241702,18.0024447 C18.1241702,18.0024447 7.133528,17.9626239 6.64314643,17.9667433 C5.87848365,17.9749821 4.75503888,17.7951018 5.24126467,16.4343282 C7.42997335,10.3156528 12.0789014,7.35106118 14.250987,6.23882441 C16.0116508,5.33667681 16.9411593,6.60682374 16.9411593,6.60682374 L21.6662766,11.5418595 C22.6775154,12.4893204 24.0641593,12.6046635 24.0641593,12.6046635 C24.0641593,12.6046635 25.3566057,12.7117678 26.9080954,12.6911708 C28.1409756,12.6746932 28.1063441,11.2329048 28.1063441,11.2329048 C28.1063441,11.2329048 28.2919688,8.21888049 28.3723138,6.69882357 C28.4706671,4.84646875 30.0775672,5.51930334 30.0775672,5.51930334 C30.0775672,5.51930334 33.5157792,6.80867412 36.4885443,9.92980274" id="Fill-4"></path>
                            <path d="M90.5754146,11.3141942 C91.3719383,11.3141942 92.0188541,11.9540737 92.0188541,12.7449976 L92.0188541,24.8505277 C92.0188541,31.1600684 88.489215,34.6574351 82.7833346,34.6574351 C77.044208,34.6574351 73.5478151,31.1284864 73.5478151,24.8505277 L73.5478151,12.7449976 C73.5478151,11.9540737 74.1933457,11.3141942 74.9912546,11.3141942 L76.6230893,11.3141942 C77.4209983,11.3141942 78.0665289,11.9540737 78.0665289,12.7449976 L78.0665289,24.8505277 C78.0665289,28.6746998 79.6817405,30.4735025 82.7833346,30.4735025 C85.9167897,30.4735025 87.5333866,28.6746998 87.5333866,24.8505277 L87.5333866,12.7449976 C87.5333866,11.9540737 88.1789171,11.3141942 88.9754408,11.3141942 L90.5754146,11.3141942 Z" id="Fill-6"></path>
                            <path d="M129.078541,29.9230139 C129.872294,29.9230139 130.516439,30.5615202 130.516439,31.3483248 L130.516439,32.7008596 C130.516439,33.4890373 129.872294,34.1275436 129.078541,34.1275436 L116.798222,34.1275436 C116.003084,34.1275436 115.358939,33.4890373 115.358939,32.7008596 L115.358939,12.7382692 C115.358939,11.9514647 116.003084,11.3129584 116.798222,11.3129584 L128.880449,11.3129584 C129.675587,11.3129584 130.319732,11.9514647 130.319732,12.7382692 L130.319732,14.0921772 C130.319732,14.8789817 129.675587,15.517488 128.880449,15.517488 L119.830554,15.517488 L119.830554,20.4058373 L126.579534,20.4058373 C127.374672,20.4058373 128.017432,21.0443436 128.017432,21.8325213 L128.017432,22.9571162 C128.017432,23.7439208 127.374672,24.3824271 126.579534,24.3824271 L119.830554,24.3824271 L119.830554,29.9230139 L129.078541,29.9230139 Z" id="Fill-8"></path>
                            <path d="M109.898665,34.1217764 C109.426291,34.1217764 108.983009,33.8910903 108.714269,33.5052402 L102.07888,23.9592278 L99.944196,26.2070446 L99.944196,32.6964656 C99.944196,33.4832701 99.3000507,34.1217764 98.5062975,34.1217764 L96.9118647,34.1217764 C96.1181115,34.1217764 95.4753515,33.4832701 95.4753515,32.6964656 L95.4753515,12.7476065 C95.4753515,11.960802 96.1181115,11.3236688 96.9118647,11.3236688 L98.5062975,11.3236688 C99.3000507,11.3236688 99.944196,11.960802 99.944196,12.7476065 L99.944196,15.8165561 L99.944196,20.7351143 L108.223887,11.7850411 C108.495398,11.4911909 108.8805,11.3236688 109.28361,11.3236688 L110.775533,11.3236688 C111.350416,11.3236688 111.868503,11.6614593 112.095685,12.1832494 C112.322867,12.7050395 112.216202,13.3119637 111.822789,13.7252764 L105.036407,20.8655618 L112.817405,31.8794521 C113.124932,32.3147349 113.162334,32.8832115 112.914373,33.3541957 C112.666411,33.8265531 112.17603,34.1217764 111.639935,34.1217764 L109.898665,34.1217764 Z" id="Fill-11"></path>
                            <path d="M67.1542923,11.3173524 C66.3563833,11.3173524 65.7108528,11.9640975 65.7108528,12.7536483 L65.7080823,26.1595342 L56.2398393,11.9544856 C55.9724844,11.5535311 55.5195048,11.3173524 55.0346643,11.3173524 L53.0662117,11.3173524 C52.269688,11.3173524 51.6227722,11.9531125 51.6227722,12.7426633 L51.6227722,32.6874029 C51.6227722,33.4769537 52.269688,34.1209525 53.0662117,34.1209525 L54.6066194,34.1209525 C54.990336,34.1209525 55.3574295,33.9671618 55.627555,33.6994011 C55.8990657,33.4302672 56.0500589,33.0663873 56.0500589,32.6874029 L56.0486736,18.9739354 L65.7136233,33.4865656 C65.9809782,33.8902664 66.4367283,34.1223257 66.9243394,34.1209525 L68.711323,34.1195794 C69.5078468,34.1182063 70.1547626,33.4783268 70.1547626,32.6874029 L70.1506068,12.7536483 C70.1506068,11.9640975 69.503691,11.3173524 68.705782,11.3173524 L67.1542923,11.3173524 Z" id="Fill-13"></path>
                        </g>
                        <path d="M139.973302,32.9552477 L141.527563,32.9552477 L141.527563,11.6579733 L140.308535,11.6579733 L135.432424,13.4402984 L135.859084,14.6788633 L139.973302,13.2892539 L139.973302,32.9552477 Z M155.515904,33.3177545 C160.940577,33.3177545 164.38433,28.2124504 164.38433,22.3821327 L164.38433,22.3217149 C164.38433,16.4913972 161.001529,11.446511 155.576856,11.446511 C150.152183,11.446511 146.70843,16.551815 146.70843,22.3821327 L146.70843,22.4425505 C146.70843,28.2728682 150.091232,33.3177545 155.515904,33.3177545 L155.515904,33.3177545 Z M155.576856,31.8979362 C151.157881,31.8979362 148.354117,27.2759745 148.354117,22.3821327 L148.354117,22.3217149 C148.354117,17.3976642 151.096929,12.8663293 155.515904,12.8663293 C159.93488,12.8663293 162.738643,17.458082 162.738643,22.3821327 L162.738643,22.4425505 C162.738643,27.3363923 159.995831,31.8979362 155.576856,31.8979362 L155.576856,31.8979362 Z" id="10"></path>
                    </g>
                </g>
            </g>
        </g>
    </g>
</svg>