<?xml version="1.0" encoding="UTF-8" standalone="no"?>
<svg width="48px" height="40px" viewBox="0 0 48 40" version="1.1" xmlns="http://www.w3.org/2000/svg" xmlns:xlink="http://www.w3.org/1999/xlink">
    <!-- Generator: Sketch 3.8.3 (29802) - http://www.bohemiancoding.com/sketch -->
    <title>ic-stack</title>
    <desc>Created with Sketch.</desc>
    <defs></defs>
    <g id="Product-Page" stroke="none" stroke-width="1" fill="none" fill-rule="evenodd">
        <g id="Desktop-HD" transform="translate(-964.000000, -3933.000000)" stroke="#FCB434" stroke-width="2">
            <g id="module-2_feature-set" transform="translate(-1.000000, 3841.000000)">
                <g id="features" transform="translate(81.000000, 91.000000)">
                    <g id="f-1" transform="translate(884.000000, 1.000000)">
                        <g id="ic-stack" transform="translate(1.000000, 0.000000)">
                            <path d="M1.26180022,12.8966148 C0.274555095,12.4123207 0.284044882,11.6224695 1.26180022,11.1428305 L21.2124346,1.35602537 C22.1996797,0.871731212 23.8098101,0.876386438 24.7875654,1.35602537 L44.7381998,11.1428305 C45.7254449,11.6271247 45.7159551,12.4169759 44.7381998,12.8966148 L24.7875654,22.68342 C23.8003203,23.1677142 22.1901899,23.1630589 21.2124346,22.68342 L1.26180022,12.8966148 Z" id="Path-26"></path>
                            <path d="M0.467015192,20.2387427 L21.21304,30.4157275 C22.1999507,30.8998576 23.8024071,30.8989199 24.7879544,30.4157275 L45.5455235,20.2387427" id="Path-27"></path>
                            <path d="M0.454475013,27.9630392 L21.2120455,38.1118781 C22.1995055,38.5946694 23.8024072,38.5937342 24.7879546,38.1118781 L45.5455257,27.9630392" id="Path-28"></path>
                        </g>
                    </g>
                </g>
            </g>
        </g>
    </g>
</svg>