<?xml version="1.0" encoding="UTF-8" standalone="no"?>
<svg width="71px" height="30px" viewBox="0 0 71 30" version="1.1" xmlns="http://www.w3.org/2000/svg" xmlns:xlink="http://www.w3.org/1999/xlink">
    <!-- Generator: Sketch 39 (31667) - http://www.bohemiancoding.com/sketch -->
    <title>menu-logo</title>
    <desc>Created with Sketch.</desc>
    <defs></defs>
    <g id="Home-Page" stroke="none" stroke-width="1" fill="none" fill-rule="evenodd">
        <g id="TF_Home-Mobile-360" transform="translate(-20.000000, -85.000000)">
            <g id="menubar" transform="translate(20.000000, 85.000000)">
                <g id="menu-logo">
                    <g id="grap/logo-symbol" transform="translate(40.000000, 0.000000)" fill="#FCB434">
                        <path d="M26.2290566,25.9855472 C24.3431321,25.9855472 22.8165283,24.4640377 22.8165283,22.5825283 C22.8165283,20.7040755 24.3431321,19.1805283 26.2290566,19.1805283 C28.113283,19.1805283 29.6398868,20.7040755 29.6398868,22.5825283 C29.6398868,24.4640377 28.113283,25.9855472 26.2290566,25.9855472 L26.2290566,25.9855472 Z M21.3918113,12.3581887 L13.0826038,12.3581887 L13.0826038,16.2105283 L19.8543396,16.2105283 L19.8543396,19.0895094 L13.0826038,19.0895094 L13.0826038,25.5168679 L9.93939623,25.5168679 L9.93939623,9.38581132 L21.3918113,9.38581132 L21.3918113,12.3581887 Z M18.0506038,0 C8.09728302,0 0,8.0745283 0,18 C0,27.9251321 8.09728302,36 18.0506038,36 C28.0042642,36 36.1015472,27.9251321 36.1015472,18 C36.1015472,8.0745283 28.0042642,0 18.0506038,0 L18.0506038,0 Z" id="Fill-1"></path>
                    </g>
                    <g id="ic-menu" transform="translate(0.000000, 7.000000)" stroke="#FFFFFF">
                        <path d="M0,16.5 L24,16.5" id="Line"></path>
                        <path d="M0,8.5 L24,8.5" id="Line"></path>
                        <path d="M0,0.5 L24,0.5" id="Line"></path>
                    </g>
                </g>
            </g>
        </g>
    </g>
</svg>