<?xml version="1.0" encoding="UTF-8" standalone="no"?>
<svg width="98px" height="30px" viewBox="0 0 98 30" version="1.1" xmlns="http://www.w3.org/2000/svg" xmlns:xlink="http://www.w3.org/1999/xlink">
    <!-- Generator: Sketch 39 (31667) - http://www.bohemiancoding.com/sketch -->
    <title>logo/symbol</title>
    <desc>Created with Sketch.</desc>
    <defs>
        <polygon id="path-1" points="3.55368276 6.79245283 6.89829885 6.79245283 6.89829885 0.0696226415 0.209066667 0.0696226415 0.209066667 6.79245283"></polygon>
    </defs>
    <g id="Product-Page" stroke="none" stroke-width="1" fill="none" fill-rule="evenodd">
        <g id="TF_Product-Page-1440" transform="translate(-30.000000, -20.000000)">
            <g id="primary">
                <g id="grap/logo-whi" transform="translate(30.000000, 17.000000)">
                    <g id="grap-logo-whi" transform="translate(0.000000, 3.000000)">
                        <g id="grap-logo-blk">
                            <g id="Group-3" transform="translate(90.959770, 23.207547)">
                                <mask id="mask-2" fill="white">
                                    <use xlink:href="#path-1"></use>
                                </mask>
                                <g id="Clip-2"></g>
                                <path d="M6.89841149,3.43132075 C6.89841149,5.28792453 5.40137701,6.79245283 3.55373908,6.79245283 C1.70666437,6.79245283 0.209066667,5.28792453 0.209066667,3.43132075 C0.209066667,1.57415094 1.70666437,0.0696226415 3.55373908,0.0696226415 C5.40137701,0.0696226415 6.89841149,1.57415094 6.89841149,3.43132075" id="Fill-1" fill="#FBB343" mask="url(#mask-2)"></path>
                            </g>
                            <polygon id="Fill-4" fill="#FFFFFF" points="10.2773276 2.83018868e-05 10.2773276 2.48125472 6.41111494 2.48125472 6.41111494 13.4640849 3.80848276 13.4640849 3.80848276 2.48125472 0 2.48125472 0 2.83018868e-05"></polygon>
                            <polygon id="Fill-6" fill="#FFFFFF" points="24.096792 2.83018868e-05 24.096792 13.4640849 21.4744471 13.4640849 21.4744471 7.9050283 15.405769 7.9050283 15.405769 13.4640849 12.8031368 13.4640849 12.8031368 2.83018868e-05 15.405769 2.83018868e-05 15.405769 5.36606604 21.4744471 5.36606604 21.4744471 2.83018868e-05"></polygon>
                            <polygon id="Fill-8" fill="#FFFFFF" points="36.295004 10.9826604 36.295004 13.4641698 26.991481 13.4641698 26.991481 0.000113207547 36.295004 0.000113207547 36.295004 2.4810566 29.5941132 2.4810566 29.5941132 5.36615094 35.3116247 5.36615094 35.3116247 7.71322642 29.5941132 7.71322642 29.5941132 10.9826604"></polygon>
                            <polygon id="Fill-10" fill="#FFFFFF" points="2.95036322 18.748217 2.95036322 21.8396321 8.6889954 21.8396321 8.6889954 24.2430283 2.95036322 24.2430283 2.95036322 29.7310472 0.347167816 29.7310472 0.347167816 16.2672736 9.83176552 16.2672736 9.83176552 18.748217"></polygon>
                            <path d="M38.2475695,16.2672736 L38.2475695,24.2294434 C38.2475695,27.9415189 36.1160695,29.9999151 32.6686098,29.9999151 C29.201719,29.9999151 27.0899316,27.9219906 27.0899316,24.2294434 L27.0899316,16.2672736 L29.8195695,16.2672736 L29.8195695,24.2294434 C29.8195695,26.4805755 30.795627,27.5376509 32.6686098,27.5376509 C34.5615868,27.5376509 35.5373626,26.4805755 35.5373626,24.2294434 L35.5373626,16.2672736 L38.2475695,16.2672736 Z" id="Fill-12" fill="#FFFFFF"></path>
                            <path d="M51.720908,16.2672736 L51.720908,29.7304811 L49.3483506,29.7304811 C49.3483506,29.7304811 43.559592,20.863783 43.5404425,20.863783 L43.4672241,20.863783 L43.4672241,29.7304811 L40.9856839,29.7304811 L40.9856839,16.2672736 L43.358523,16.2672736 C43.358523,16.2672736 49.1565747,25.0572736 49.1762874,25.0572736 L49.214023,25.0572736 L49.214023,16.2672736 L51.720908,16.2672736 Z" id="Fill-14" fill="#FFFFFF"></path>
                            <path d="M59.6766494,27.2506132 C61.8202586,27.2506132 63.3893851,25.7308019 63.3893851,23.0576887 C63.3893851,20.3064623 61.7433793,18.7294811 59.6000517,18.7294811 L57.1123161,18.7294811 L57.1123161,27.2506132 L59.6766494,27.2506132 Z M59.4851552,16.267217 C63.2936379,16.267217 66.0874828,18.9607075 66.0874828,23.0576887 C66.0874828,27.1345755 63.3322184,29.7309906 59.5617529,29.7309906 L54.5096839,29.7309906 L54.5096839,16.267217 L59.4851552,16.267217 Z" id="Fill-16" fill="#FFFFFF"></path>
                            <path d="M71.173908,22.7881415 L74.4926724,22.7881415 C75.8517184,22.7881415 76.5405345,21.8456887 76.5405345,20.7489906 C76.5405345,19.6336132 75.832569,18.7293679 74.4926724,18.7293679 L71.173908,18.7293679 L71.173908,22.7881415 Z M76.789477,29.7311604 L74.3583448,25.1148396 L71.173908,25.1148396 L71.173908,29.7311604 L68.5707126,29.7311604 L68.5707126,16.2673868 L74.2442931,16.2673868 C77.2870805,16.2673868 79.2397586,18.0371038 79.2397586,20.7489906 C79.2397586,22.5761604 78.3400172,23.9224811 76.8466437,24.595783 L79.717931,29.7311604 L76.789477,29.7311604 Z" id="Fill-18" fill="#FFFFFF"></path>
                            <path d="M92.0323351,16.2672736 L87.2863753,23.7686887 L87.2863753,29.7310472 L84.6831799,29.7310472 L84.6831799,23.7686887 L79.9366569,16.2672736 L82.7882316,16.2672736 C82.7882316,16.2672736 85.9656282,21.4224623 85.9847776,21.4224623 L86.003927,21.4224623 C86.0225132,21.4224623 89.1804787,16.2672736 89.1804787,16.2672736 L92.0323351,16.2672736 Z" id="Fill-20" fill="#FFFFFF"></path>
                            <path d="M18.1055,27.3680094 C20.5188908,27.3680094 22.4757931,25.4013113 22.4757931,22.9766887 C22.4757931,20.5506509 20.5188908,18.5845189 18.1055,18.5845189 C15.6923908,18.5845189 13.7357701,20.5506509 13.7357701,22.9766887 C13.7357701,25.4013113 15.6923908,27.3680094 18.1055,27.3680094 M25.0508276,22.9766887 C25.0508276,26.8308396 21.9415805,29.9556509 18.1057816,29.9556509 C14.2702644,29.9556509 11.160454,26.8308396 11.160454,22.9766887 C11.160454,19.1211226 14.2702644,15.9960283 18.1057816,15.9960283 C21.9415805,15.9960283 25.0508276,19.1211226 25.0508276,22.9766887" id="Fill-22" fill="#FFFFFF"></path>
                        </g>
                    </g>
                </g>
            </g>
        </g>
    </g>
</svg>