<?xml version="1.0" encoding="UTF-8" standalone="no"?>
<svg width="112px" height="35px" viewBox="0 0 112 35" version="1.1" xmlns="http://www.w3.org/2000/svg" xmlns:xlink="http://www.w3.org/1999/xlink">
    <!-- Generator: Sketch 39 (31667) - http://www.bohemiancoding.com/sketch -->
    <title>Page 1</title>
    <desc>Created with Sketch.</desc>
    <defs></defs>
    <g id="Navigation" stroke="none" stroke-width="1" fill="none" fill-rule="evenodd" opacity="1">
        <g id="Nav-in-situation" transform="translate(-187.000000, -119.000000)" fill="#FFFFFF">
            <g id="products" transform="translate(31.000000, 118.000000)">
                <g id="Page-1" transform="translate(156.415094, 1.000000)">
                    <path d="M17.1826442,0 C7.69293269,0 0.000336538462,7.69326923 0.000336538462,17.1823077 C0.000336538462,26.6720192 7.69293269,34.3652885 17.1826442,34.3652885 C26.6723558,34.3652885 34.3649519,26.6720192 34.3649519,17.1823077 C34.3649519,7.69326923 26.6723558,0 17.1826442,0 M17.2062019,32.5924038 C8.68639423,32.5924038 1.77860577,25.6852885 1.77860577,17.1661538 C1.77860577,8.64567308 8.68639423,1.73855769 17.2062019,1.73855769 C25.7266827,1.73855769 32.6344712,8.64567308 32.6344712,17.1661538 C32.6344712,25.6852885 25.7266827,32.5924038 17.2062019,32.5924038" id="Fill-1"></path>
                    <path d="M22.6869327,14.1041923 C22.4553942,13.3362115 22.3039519,12.7216923 22.2063558,12.2323654 C21.8704904,11.5754423 20.0343365,11.4993846 18.9156827,11.9328462 C17.9753942,12.2976538 17.0593365,13.0528462 17.1098173,13.7959231 C17.1677019,14.2051538 17.2403942,14.6332308 17.3299135,15.0882308 C17.885875,17.6593846 19.4305865,22.5869808 19.2724135,23.4128462 C19.3854904,22.7666923 18.1786635,19.6187115 17.378375,17.0462115 C13.9577981,14.0045769 11.4041442,13.1268846 9.56597115,13.6276538 C7.64029808,14.154 6.58760577,16.0231346 6.265875,17.864 C5.62914423,21.5107308 7.17116346,25.4886154 7.93039423,25.8965 C8.11750962,25.9974615 8.44529808,26.4894808 9.79952885,26.1017885 C10.6173173,25.8689038 11.5784712,25.3122692 11.787125,24.5826538 C12.0442404,23.6820769 11.1443365,20.1275577 11.1288558,18.5364038 L11.1288558,18.5269808 C11.1261635,18.389 11.1322212,18.2644808 11.1443365,18.1588077 C11.2298173,17.3565 11.6020288,17.1222692 12.1391442,17.0172692 C11.7103942,17.1451538 11.5650096,17.5651538 11.507125,18.1170769 C12.3403942,18.43275 13.1723173,19.0937115 15.0300096,20.6680385 C17.5076058,22.7666923 19.0900096,25.4004423 20.755875,25.8096731 C22.7656827,26.3037115 24.0680865,25.22275 24.378375,23.12275 C24.6004904,21.6083269 23.7705865,18.1588077 23.1177019,15.6731346 C22.9595288,15.1286154 22.8134712,14.6022692 22.6869327,14.1041923" id="Fill-3"></path>
                    <path d="M22.2626923,8.22708654 C22.4854808,8.65045192 22.5803846,9.19968269 22.5803846,9.67150962 C22.5803846,10.0692981 22.5130769,10.409875 22.4006731,10.5734327 C22.3932692,10.5976635 22.37375,10.689875 22.37375,10.8971827 C22.37375,10.9967981 22.3777885,11.1226635 22.3925962,11.2781442 C22.5783654,11.3091058 22.7876923,11.3743942 23.0111538,11.4659327 C24.01875,10.5162212 24.3445192,9.08660577 24.115,8.60872115 C22.9175962,7.66641346 21.8083654,7.08016346 20.7193269,7.00545192 C21.3742308,7.20804808 21.9470192,7.63275962 22.2626923,8.22708654 M23.0340385,14.0895865 C23.3194231,14.338625 23.6303846,14.6166058 23.9514423,14.8878558 C24.29875,14.7700673 25.1973077,13.9630481 25.6368269,13.568625 L25.7021154,13.5093942 C24.8580769,12.8767019 23.8679808,12.2016058 23.0730769,11.8408365 C22.9155769,11.967375 22.6954808,12.1013173 22.5305769,12.194875 C22.6113462,12.6034327 22.7325,13.1035288 22.9081731,13.7146827 C22.9499038,13.8425673 22.9923077,13.9684327 23.0340385,14.0895865 M25.9632692,13.708625 L25.8522115,13.8075673 C25.2444231,14.3541058 24.6278846,14.8925673 24.2206731,15.1140096 C24.9078846,15.6793942 25.6031731,16.1693942 26.1275,16.2494904 C26.4653846,15.9587212 27.1660577,15.292375 27.3538462,14.8367019 C27.1021154,14.6159327 26.5858654,14.1858365 25.9632692,13.708625 M28.8191346,13.6857404 C28.7767308,13.341125 28.2483654,12.6626635 27.6042308,11.9478558 C27.2919231,12.3469904 26.6222115,13.0846827 26.2022115,13.489875 C26.88,14.0128558 27.4090385,14.4624712 27.5847115,14.6125673 C27.9050962,14.5163173 28.6831731,13.9940096 28.8218269,13.804875 C28.8238462,13.7638173 28.8225,13.7241058 28.8191346,13.6857404 M22.1119231,11.6900673 C21.9826923,10.794875 22.0823077,10.4946827 22.1051923,10.4415096 C22.1119231,10.4253558 22.1213462,10.4105481 22.1321154,10.3984327 C22.2936538,10.2153558 22.3589423,9.09670192 21.9786538,8.37785577 C21.4624038,7.40593269 20.1613462,6.953625 19.0696154,7.31304808 C18.2343269,7.66641346 18.4806731,9.78458654 18.9666346,11.573625 C19.9304808,11.2572788 21.3735577,11.2263173 22.1119231,11.6900673 M26.6753846,16.1828558 C27.0449038,16.0542981 27.4339423,15.7790096 27.7960577,15.4976635 C28.1238462,15.2412212 28.4657692,14.7909327 28.6596154,14.3689135 C28.3338462,14.6065096 27.9165385,14.846125 27.6634615,14.9228558 C27.5052885,15.3388173 27.0280769,15.8463173 26.6753846,16.1828558 M22.47,11.8590096 C22.5635577,11.8031442 22.6497115,11.7492981 22.72375,11.6988173 C22.6207692,11.6624712 22.5245192,11.6342019 22.4309615,11.6126635 C22.4424038,11.6900673 22.4545192,11.7721827 22.47,11.8590096 M23.3275,11.6059327 C24.1553846,12.0043942 25.13,12.6781442 25.94375,13.2926635 C26.3610577,12.8962212 27.1000962,12.0824712 27.3827885,11.7068942 C26.32875,10.5707404 25.0781731,9.42179808 25.0781731,9.42179808 C24.8843269,9.246125 24.6918269,9.079875 24.5020192,8.922375 C24.5148077,9.202375 24.465,9.53891346 24.3546154,9.89699038 C24.2334615,10.2819904 23.9460577,10.9846827 23.3275,11.6059327 M18.6657692,11.6893942 C18.4288462,10.8258365 17.9738462,8.85170192 18.3447115,7.73843269 C17.2166346,8.60804808 16.7279808,10.2375673 17.0093269,12.9938173 C17.3438462,12.4405481 18.0007692,11.9727596 18.6657692,11.6893942" id="Fill-5"></path>
                    <path d="M83.08475,22.6081154 C85.8423462,22.6081154 87.8609038,20.6635962 87.8609038,17.241 C87.8609038,13.7208077 85.7434038,11.7009038 82.9864808,11.7009038 L79.7853269,11.7009038 L79.7853269,22.6081154 L83.08475,22.6081154 Z M82.8390769,8.55023077 C87.7370577,8.55023077 91.3333077,11.9970577 91.3333077,17.241 C91.3333077,22.4600385 87.7868654,25.7836923 82.9373462,25.7836923 L77.5136923,25.7836923 C76.9193654,25.7836923 76.4374423,25.3024423 76.4374423,24.7087885 L76.4374423,9.62513462 C76.4374423,9.03215385 76.9193654,8.55023077 77.5136923,8.55023077 L82.8390769,8.55023077 Z" id="Fill-7"></path>
                    <path d="M101.810288,22.9264808 C104.99125,22.9264808 107.569808,20.3479231 107.569808,17.1669615 C107.569808,13.986 104.99125,11.4067692 101.810288,11.4067692 C98.6293269,11.4067692 96.0507692,13.986 96.0507692,17.1669615 C96.0507692,20.3479231 98.6293269,22.9264808 101.810288,22.9264808 M92.7378846,17.1669615 C92.7378846,12.15725 96.7999038,8.09523077 101.810288,8.09523077 C106.82,8.09523077 110.881346,12.15725 110.881346,17.1669615 C110.881346,22.1773462 106.82,26.2380192 101.810288,26.2380192 C96.7999038,26.2380192 92.7378846,22.1773462 92.7378846,17.1669615" id="Fill-9"></path>
                    <path d="M65.3098654,22.9264808 C68.4908269,22.9264808 71.0693846,20.3479231 71.0693846,17.1669615 C71.0693846,13.986 68.4908269,11.4067692 65.3098654,11.4067692 C62.1289038,11.4067692 59.5503462,13.986 59.5503462,17.1669615 C59.5503462,20.3479231 62.1289038,22.9264808 65.3098654,22.9264808 M56.2388077,17.1669615 C56.2388077,12.15725 60.3001538,8.09523077 65.3098654,8.09523077 C70.32025,8.09523077 74.3809231,12.15725 74.3809231,17.1669615 C74.3809231,22.1773462 70.32025,26.2380192 65.3098654,26.2380192 C60.3001538,26.2380192 56.2388077,22.1773462 56.2388077,17.1669615" id="Fill-11"></path>
                    <path d="M51.7545,8.55359615 C51.3614231,8.55561538 50.9986346,8.77234615 50.8121923,9.12032692 L46.4762308,17.16225 L42.1463269,9.12234615 C41.9598846,8.77436538 41.5964231,8.55494231 41.2013269,8.55359615 L39.7595962,8.55359615 C39.4735385,8.55359615 39.2002692,8.66801923 38.9983462,8.86926923 C38.79575,9.07119231 38.6826731,9.34513462 38.6826731,9.62984615 L38.6826731,24.7054231 C38.6826731,25.3004231 39.1639231,25.7769615 39.7575769,25.7769615 L40.8533462,25.7769615 C41.1387308,25.7769615 41.412,25.6685962 41.6145962,25.4666731 C41.8158462,25.2654231 41.9289231,24.9908077 41.9289231,24.7054231 L41.9269038,14.5419615 L45.3461346,20.8863846 C45.5339231,21.2350385 45.8973846,21.4524423 46.2924808,21.4524423 L46.6599808,21.4524423 C47.0564231,21.4524423 47.4198846,21.2350385 47.6076731,20.8863846 L51.0302692,14.5325385 L51.0269038,24.6966731 C51.0269038,24.9820577 51.1413269,25.256 51.3425769,25.45725 C51.5438269,25.6591731 51.8177692,25.7769615 52.1031538,25.7769615 L53.1989231,25.7769615 C53.7925769,25.7769615 54.2745,25.291 54.2745,24.6966731 L54.2745,9.62446154 C54.2745,9.33840385 54.1600769,9.06446154 53.9574808,8.86186538 C53.7555577,8.66061538 53.4802692,8.55225 53.1942115,8.55359615 L51.7545,8.55359615 Z" id="Fill-13"></path>
                </g>
            </g>
        </g>
    </g>
</svg>