<?xml version="1.0" encoding="UTF-8" standalone="no"?>
<svg width="116px" height="118px" viewBox="0 0 116 118" version="1.1" xmlns="http://www.w3.org/2000/svg" xmlns:xlink="http://www.w3.org/1999/xlink">
    <!-- Generator: Sketch 39 (31667) - http://www.bohemiancoding.com/sketch -->
    <title>nuke</title>
    <desc>Created with Sketch.</desc>
    <defs>
        <polygon id="path-1" points="33.7176607 0.623396226 0.000251270612 0.623396226 0.000251270612 34.3393019 33.7176607 34.3393019 33.7176607 0.623396226"></polygon>
    </defs>
    <g id="Navigation" stroke="none" stroke-width="1" fill="none" fill-rule="evenodd">
        <g id="Nav-in-situation" transform="translate(-30.000000, -112.000000)">
            <g id="products" transform="translate(30.000000, 111.000000)">
                <g id="nuke" transform="translate(0.000000, 1.000000)">
                    <g id="Page-1">
                        <g id="Group-3" transform="translate(0.000000, 0.037179)">
                            <mask id="mask-2" fill="white">
                                <use xlink:href="#path-1"></use>
                            </mask>
                            <g id="Clip-2"></g>
                            <path d="M17.3001038,0.629009434 C26.6074623,0.872688679 33.9548208,8.61495283 33.7118019,17.9229717 C33.4674623,27.2303302 25.7245377,34.5783491 16.4171792,34.3333491 C7.10982075,34.0903302 -0.237537736,26.348066 0.00614150943,17.0407075 C0.250481132,7.73334906 7.99274528,0.385990566 17.3001038,0.629009434 M17.2545377,2.37042453 C8.9080283,2.15117925 1.96614151,8.73976415 1.74689623,17.0849528 C1.52831132,25.4314623 8.11689623,32.3746698 16.4634057,32.5932547 C24.8092547,32.8125 31.7524623,26.2239151 31.9703868,17.8774057 C32.1896321,9.53089623 25.6003868,2.58834906 17.2545377,2.37042453" id="Fill-1" fill="#FFFFFF" mask="url(#mask-2)"></path>
                        </g>
                        <path d="M18.4138302,12.0769151 C17.7468491,12.710217 18.0083585,14.1425755 19.0451509,15.2355 C20.0819434,16.3271038 21.4991132,16.6638962 22.1660943,16.0305943 C22.8330755,15.3972925 22.5973208,13.9385189 21.5618491,12.8469151 C20.525717,11.7553113 19.0808113,11.4436132 18.4138302,12.0769151 M26.820434,8.02351887 C29.0175094,10.3269151 29.7828868,12.8403113 29.7828868,12.8403113 C29.7828868,12.8403113 30.2187358,14.0461604 28.8444906,14.0461604 C27.7152453,14.0461604 25.4759057,14.0666321 25.4759057,14.0666321 C25.4759057,14.0666321 24.4100566,13.9847453 24.3499623,14.8894623 C24.2746792,16.0272925 24.3050566,16.9795566 24.3050566,16.9795566 C24.3050566,16.9795566 24.3380755,18.0031415 24.9997736,18.7817264 L28.4726981,22.4415377 C28.4726981,22.4415377 29.3780755,23.1732358 28.6417547,24.4305943 C27.7343962,25.9818208 25.3603396,29.2797453 20.7456226,30.6467264 C19.7193962,30.9511604 19.6282642,30.1204057 19.6639245,29.5597453 C19.6863774,29.1991792 20.0793019,21.1306887 20.0793019,21.1306887 C20.0793019,21.1306887 20.3381698,19.7987075 19.3198679,18.7255943 C18.2276038,17.5738962 17.5493962,16.8184245 17.5493962,16.8184245 C17.5493962,16.8184245 16.7767547,16.0451226 15.6838302,14.8934245 C14.6655283,13.8203113 13.3216604,14.0091792 13.3216604,14.0091792 C13.3216604,14.0091792 5.24326415,13.9801226 4.88269811,13.9827642 C4.32071698,13.9893679 3.49524528,13.8559717 3.85250943,12.8469151 C5.46118868,8.30946226 8.87864151,6.11106604 10.4747736,5.28625472 C11.7691132,4.61729245 12.4519434,5.55965094 12.4519434,5.55965094 L15.9255283,9.21880189 C16.6684528,9.9214434 17.6880755,10.0066321 17.6880755,10.0066321 C17.6880755,10.0066321 18.6376981,10.0865377 19.7781698,10.0713491 C20.6842075,10.0588019 20.6591132,8.98965094 20.6591132,8.98965094 C20.6591132,8.98965094 20.7951509,6.75493396 20.8545849,5.62766981 C20.926566,4.25408491 22.1079811,4.75266981 22.1079811,4.75266981 C22.1079811,4.75266981 24.6352453,5.70889623 26.820434,8.02351887" id="Fill-4" fill="#FFFFFF"></path>
                    </g>
                    <text id="Compositing,-editora" opacity="0.5" font-family="AvenirLTStd-Light, Avenir LT Std" font-size="14" font-weight="300" line-spacing="20" fill="#FFFFFF">
                        <tspan x="0" y="89">Compositing, </tspan>
                        <tspan x="0" y="109">editoral &amp; finishing</tspan>
                    </text>
                    <text id="NUKE" font-family="AvenirLTStd-Medium, Avenir LT Std" font-size="24" font-weight="500" fill="#FFFFFF">
                        <tspan x="0" y="67">NUKE</tspan>
                    </text>
                </g>
            </g>
        </g>
    </g>
</svg>