<?xml version="1.0" encoding="UTF-8" standalone="no"?>
<svg width="124px" height="26px" viewBox="0 0 124 26" version="1.1" xmlns="http://www.w3.org/2000/svg" xmlns:xlink="http://www.w3.org/1999/xlink">
    <!-- Generator: Sketch 39 (31667) - http://www.bohemiancoding.com/sketch -->
    <title>icons</title>
    <desc>Created with Sketch.</desc>
    <defs>
        <path d="M14.2083333,5.04166667 C14.2083333,7.57258333 12.1559167,9.625 9.625,9.625 C7.09408333,9.625 5.04166667,7.57258333 5.04166667,5.04166667 C5.04166667,2.51075 7.09408333,0.458333333 9.625,0.458333333 C12.1559167,0.458333333 14.2083333,2.51075 14.2083333,5.04166667 L14.2083333,5.04166667 Z" id="path-1"></path>
        <mask id="mask-2" maskContentUnits="userSpaceOnUse" maskUnits="objectBoundingBox" x="-1" y="-1" width="11.1666667" height="11.1666667">
            <rect x="4.04166667" y="-0.541666667" width="11.1666667" height="11.1666667" fill="white"></rect>
            <use xlink:href="#path-1" fill="black"></use>
        </mask>
    </defs>
    <g id="Product-Page" stroke="none" stroke-width="1" fill="none" fill-rule="evenodd">
        <g id="TF_Product-Page-1440" transform="translate(-1286.000000, -22.000000)">
            <g id="primary">
                <g id="icons" transform="translate(1286.000000, 22.000000)">
                    <g id="ic-search-m" transform="translate(0.000000, 3.000000)">
                        <path d="M9,0 C4.029,0 0,4.029 0,9 C0,13.971 4.029,18 9,18 C13.971,18 18,13.971 18,9 C18,4.029 13.971,0 9,0 M9,1 C13.411,1 17,4.589 17,9 C17,13.411 13.411,17 9,17 C4.589,17 1,13.411 1,9 C1,4.589 4.589,1 9,1" id="Fill-1" fill="#FFFFFF"></path>
                        <path d="M15,15 L22.5872554,22.5872554" id="Stroke-3" stroke="#FFFFFF" stroke-linecap="round"></path>
                    </g>
                    <g id="ic-basket-m" transform="translate(53.000000, 0.000000)" stroke-linecap="round" stroke="#FFFFFF">
                        <polygon id="Stroke-1" points="0.5 24.5 20.5 24.5 20.5 6.5 0.5 6.5"></polygon>
                        <path d="M4.5,10.5 L4.5,6.5 C4.5,3.186 7.186,0.5 10.5,0.5 C13.814,0.5 16.5,3.186 16.5,6.5 L16.5,10.5" id="Stroke-3"></path>
                    </g>
                    <g id="ic-login" transform="translate(104.000000, 3.000000)" stroke="#FFFFFF" stroke-linecap="round">
                        <use id="Stroke-1" mask="url(#mask-2)" stroke-width="2" xlink:href="#path-1"></use>
                        <path d="M0,22 C0,16.684375 4.309375,12.375 9.625,12.375 C14.940625,12.375 19.25,16.684375 19.25,22" id="Stroke-3"></path>
                    </g>
                </g>
            </g>
        </g>
    </g>
</svg>